<?xml version="1.0" encoding="UTF-8"?>
<svg version="1.1" xmlns="http://www.w3.org/2000/svg" width="1536" height="1536">
<path d="M0 0 C0.86644638 -0.00281982 1.73289276 -0.00563965 2.62559509 -0.00854492 C3.5732222 -0.00652069 4.5208493 -0.00449646 5.49719238 -0.00241089 C6.99754784 -0.00503937 6.99754784 -0.00503937 8.5282135 -0.00772095 C11.84145838 -0.01212975 15.15465007 -0.00920486 18.46789551 -0.00582886 C20.76570648 -0.00650218 23.06351739 -0.00747243 25.36132812 -0.00872803 C30.17989784 -0.01020368 34.99844904 -0.00805466 39.8170166 -0.00338745 C46.00122298 0.00230975 52.18538597 -0.00096996 58.36959076 -0.00695992 C63.11525806 -0.01056908 67.86091503 -0.0094253 72.60658264 -0.00683212 C74.88721217 -0.00616384 77.16784263 -0.00698785 79.44847107 -0.00931168 C82.63270563 -0.01184398 85.81686937 -0.00798935 89.00109863 -0.00241089 C89.94872574 -0.00443512 90.89635284 -0.00645935 91.87269592 -0.00854492 C92.7391423 -0.0057251 93.60558868 -0.00290527 94.49829102 0 C95.2511866 0.00037703 96.00408218 0.00075405 96.77979279 0.0011425 C98.74914551 0.12698364 98.74914551 0.12698364 101.74914551 1.12698364 C103.39114545 1.31832733 105.03816203 1.46822139 106.68664551 1.59182739 C107.66504395 1.66981567 108.64344238 1.74780396 109.65148926 1.82815552 C111.68522853 1.98331469 113.71908028 2.13700802 115.75305176 2.28909302 C121.69056036 2.76517748 127.46194977 3.53193407 133.31066895 4.66091919 C136.31958149 5.2360107 139.33785896 5.66092657 142.37414551 6.06448364 C147.80943151 6.82470536 153.21832257 7.68330751 158.62414551 8.62698364 C159.31331055 8.74549683 160.00247559 8.86401001 160.71252441 8.9861145 C164.71220245 9.6950827 168.62913893 10.57401023 172.56555176 11.58694458 C176.9548413 12.67248891 181.38911026 13.56329163 185.81164551 14.50198364 C195.81715308 16.6515514 205.85438361 18.81838972 215.57092285 22.07180786 C218.58659821 23.07301764 221.61333637 24.0000449 224.65930176 24.90432739 C256.26068396 34.40685654 287.61094595 45.90731435 316.91467285 61.17971802 C319.48571491 62.50732558 322.08004542 63.78619121 324.67419434 65.06790161 C328.04193797 66.73563539 331.3963723 68.4293976 334.74914551 70.12698364 C335.71594238 70.61473267 335.71594238 70.61473267 336.70227051 71.11233521 C346.31815343 75.99239579 355.62183583 81.33956055 364.87414551 86.87698364 C365.94140869 87.51515015 367.00867187 88.15331665 368.10827637 88.81082153 C373.48919723 92.05912524 378.67365323 95.42234237 383.74914551 99.12698364 C385.4453272 100.08708649 387.14175784 101.0467833 388.84289551 101.99807739 C394.55588337 105.38138373 399.8479831 109.47118192 405.21789551 113.36526489 C406.0141333 113.94220093 406.81037109 114.51913696 407.6307373 115.11355591 C409.2275911 116.27194448 410.82285877 117.43252331 412.41638184 118.5954895 C413.16170166 119.13697632 413.90702148 119.67846313 414.67492676 120.23635864 C415.37956055 120.75005005 416.08419434 121.26374146 416.81018066 121.79299927 C418.87160744 123.27021422 418.87160744 123.27021422 421.79211426 124.70510864 C423.74914551 126.12698364 423.74914551 126.12698364 424.26477051 128.62307739 C423.63838739 131.66483176 422.94020912 132.32891686 420.49914551 134.18948364 C416.03236897 137.80430815 412.05676066 141.75606321 408.05090332 145.86355591 C405.10081323 148.86216077 402.03633156 151.51086588 398.74914551 154.12698364 C397.06966057 155.7822979 395.40674783 157.45000026 393.74914551 159.12698364 C392.55085209 160.32663906 391.35181974 161.52555663 390.15222168 162.72390747 C389.49191452 163.38421463 388.83160736 164.04452179 388.15129089 164.72483826 C379.01724243 173.85888672 369.88319397 182.99293518 360.74914551 192.12698364 C357.29971058 190.44712894 354.19916969 188.49309135 351.01477051 186.34573364 C349.88020765 185.58346707 348.74560318 184.82126241 347.61096191 184.05911255 C347.02131653 183.66185974 346.43167114 183.26460693 345.82415771 182.85531616 C323.88823035 168.09124345 301.71019632 153.91044711 277.57727051 142.97219849 C274.91104151 141.73949485 272.30090906 140.40323958 269.68664551 139.06448364 C249.50300482 128.90419776 228.24038067 121.00677155 206.74914551 114.12698364 C205.01277832 113.55850708 205.01277832 113.55850708 203.24133301 112.97854614 C190.40290861 108.87419052 177.21318019 105.90182205 164.08361816 102.8923645 C161.9233696 102.39651011 159.76411513 101.89629648 157.6060791 101.39089966 C131.49205259 95.30388036 105.40850965 92.08602105 78.67590332 90.72171021 C77.40327637 90.65564575 76.13064941 90.5895813 74.81945801 90.52151489 C73.69297852 90.46842163 72.56649902 90.41532837 71.40588379 90.36062622 C68.74914551 90.12698364 68.74914551 90.12698364 66.74914551 89.12698364 C63.79456373 89.02771719 60.86405249 88.98717749 57.90930176 88.99417114 C57.03140488 88.99321442 56.153508 88.99225769 55.24900818 88.99127197 C53.39041065 88.99059082 51.53181075 88.99244062 49.67321777 88.99661255 C46.82672782 89.00195533 43.98039612 88.99666868 41.13391113 88.99026489 C39.32987433 88.99092581 37.52583762 88.99220726 35.72180176 88.99417114 C34.86860855 88.99214691 34.01541534 88.99012268 33.1363678 88.98803711 C29.76028653 89.00143757 26.9740878 89.05200288 23.74914551 90.12698364 C21.76923508 90.29969117 19.78495544 90.4238711 17.79992676 90.52151489 C15.96313354 90.62073242 15.96313354 90.62073242 14.0892334 90.72195435 C13.43423859 90.75680939 12.77924377 90.79166443 12.10440063 90.82757568 C-12.49923717 92.17543322 -36.72314872 95.127787 -60.77966309 100.58059692 C-64.21548627 101.34026619 -67.66697438 101.98049813 -71.12585449 102.62698364 C-78.81548538 104.15636579 -86.30548109 106.26151448 -93.83239746 108.43557739 C-96.30204022 109.141617 -98.77725734 109.82408126 -101.25476074 110.50198364 C-118.61578786 115.29055111 -135.74128193 120.90152279 -152.25085449 128.12698364 C-153.85687798 128.80324041 -155.46373175 129.47752696 -157.07116699 130.15042114 C-168.01650416 134.75114253 -178.72993907 139.62500725 -189.25085449 145.12698364 C-189.96257812 145.49855591 -190.67430176 145.87012817 -191.40759277 146.25296021 C-196.37006266 148.85032414 -201.3146391 151.48012009 -206.25085449 154.12698364 C-207.81706543 154.96422974 -207.81706543 154.96422974 -209.41491699 155.81838989 C-215.46978076 159.08460513 -221.398613 162.51059852 -227.25085449 166.12698364 C-228.27275879 166.7578186 -228.27275879 166.7578186 -229.31530762 167.40139771 C-239.90491628 173.95794265 -250.2100799 180.75956529 -260.25085449 188.12698364 C-261.17897949 188.79085083 -262.10710449 189.45471802 -263.06335449 190.13870239 C-275.26795035 198.88414681 -286.87526728 208.33689776 -298.25085449 218.12698364 C-298.96628418 218.74057739 -299.68171387 219.35417114 -300.41882324 219.98635864 C-302.3782899 221.68321637 -304.31720168 223.40077251 -306.25085449 225.12698364 C-307.44581543 226.18272583 -307.44581543 226.18272583 -308.66491699 227.25979614 C-315.67907691 233.56266097 -322.38621707 240.15644194 -329.06335449 246.81448364 C-329.9588501 247.70538696 -330.8543457 248.59629028 -331.77697754 249.51419067 C-336.80928932 254.55823279 -341.63268605 259.70257172 -346.25085449 265.12698364 C-347.22392956 266.24494055 -348.19785652 267.36215668 -349.17272949 268.47854614 C-364.40031471 286.05639521 -378.6144299 304.59568452 -391.25085449 324.12698364 C-392.07270233 325.36076919 -392.89569527 326.59379245 -393.71960449 327.82620239 C-410.69630561 353.39666091 -425.8583898 381.07368094 -437.06604004 409.67263794 C-438.56880428 413.49330068 -440.18895029 417.22592802 -441.93835449 420.93948364 C-443.88058757 425.12085167 -445.27348943 429.2639649 -446.51647949 433.69729614 C-447.23287873 436.06751066 -448.10083532 438.28441775 -449.06335449 440.56448364 C-456.15217737 457.83839687 -460.47767908 476.27083991 -464.50109863 494.4524231 C-464.79875122 495.79179932 -464.79875122 495.79179932 -465.10241699 497.15823364 C-465.36272705 498.34255981 -465.36272705 498.34255981 -465.6282959 499.55081177 C-466.10187309 501.51049278 -466.64585991 503.45330751 -467.22131348 505.38552856 C-468.36863469 509.55500866 -469.15584424 513.69837056 -469.87194824 517.95901489 C-470.01655991 518.81257568 -470.16117157 519.66613647 -470.31016541 520.54556274 C-470.77794855 523.34222812 -471.23499599 526.14044503 -471.68835449 528.93948364 C-471.9227121 530.37788101 -471.9227121 530.37788101 -472.1618042 531.84533691 C-475.2185308 550.84672198 -476.87042477 569.84196445 -477.85887146 589.05410767 C-478.03509927 592.32849144 -478.30873929 595.53074632 -478.77429199 598.77810669 C-479.2206278 601.9145761 -479.37997302 604.86908062 -479.38366699 608.03323364 C-479.38495605 609.10702271 -479.38624512 610.18081177 -479.38757324 611.28713989 C-479.38370605 612.38928833 -479.37983887 613.49143677 -479.37585449 614.62698364 C-479.37972168 615.72913208 -479.38358887 616.83128052 -479.38757324 617.96682739 C-479.38628418 619.04061646 -479.38499512 620.11440552 -479.38366699 621.22073364 C-479.3819751 622.66996216 -479.3819751 622.66996216 -479.38024902 624.14846802 C-479.23356793 627.52490071 -478.73097232 630.78192588 -478.25085449 634.12698364 C-478.00350938 637.03928136 -477.83925593 639.95517758 -477.67272949 642.87307739 C-476.31583649 664.89778045 -474.10983293 686.40126487 -470.25085449 708.12698364 C-469.95385397 709.90126846 -469.65926838 711.67596069 -469.36804199 713.45120239 C-468.23528019 720.27598377 -466.89693165 727.00226454 -465.13366699 733.69338989 C-464.40467539 736.52871564 -463.71932721 739.36587508 -463.05554199 742.21682739 C-462.84075195 743.13689575 -462.62596191 744.05696411 -462.40466309 745.00491333 C-461.98016116 746.82909858 -461.55844798 748.65393588 -461.14001465 750.47952271 C-460.00824517 755.31386014 -458.70001001 760.00683121 -457.08093262 764.69998169 C-456.11688952 767.51867358 -455.21334925 770.35360701 -454.31335449 773.19338989 C-453.97562012 774.25622192 -453.63788574 775.31905396 -453.28991699 776.41409302 C-452.59608268 778.60123614 -451.90337781 780.78873787 -451.21179199 782.97659302 C-449.37151475 788.7608232 -447.43961427 794.46555471 -445.25085449 800.12698364 C-444.65144043 801.72993286 -444.65144043 801.72993286 -444.03991699 803.36526489 C-441.74095447 809.43668606 -439.29423473 815.38197083 -436.55554199 821.26760864 C-435.1154915 824.42364745 -433.77772399 827.61447652 -432.43835449 830.81448364 C-418.08791201 864.33508794 -398.70179253 895.72440477 -377.25085449 925.12698364 C-376.53413574 926.11053833 -375.81741699 927.09409302 -375.07897949 928.10745239 C-358.53645638 950.47608309 -340.12257681 971.30871758 -320.50085449 991.00198364 C-319.61341553 991.89409546 -318.72597656 992.78620728 -317.81164551 993.70535278 C-312.78549939 998.71926411 -307.66354081 1003.53377715 -302.25085449 1008.12698364 C-301.72378906 1008.58105591 -301.19672363 1009.03512817 -300.65368652 1009.50296021 C-277.03140354 1029.84287585 -251.91243085 1048.22606466 -225.20788574 1064.33792114 C-223.17059719 1065.57052109 -221.14780185 1066.82729059 -219.13757324 1068.10354614 C-211.40403753 1072.99484224 -203.47697045 1077.14828247 -195.25964355 1081.14016724 C-193.34679958 1082.07985068 -191.44939817 1083.04422032 -189.55554199 1084.02151489 C-156.47358312 1101.04007831 -121.3607709 1114.20093689 -85.25085449 1123.12698364 C-84.289375 1123.36578247 -84.289375 1123.36578247 -83.30847168 1123.60940552 C-72.46534989 1126.28504863 -61.55161504 1128.54875205 -50.58776855 1130.66995239 C-48.49072599 1131.08007187 -46.3978962 1131.50621296 -44.30554199 1131.93948364 C-25.15062996 1135.77846392 -5.74583296 1137.40556736 13.73181152 1138.48074341 C14.99307861 1138.55220581 16.2543457 1138.62366821 17.55383301 1138.69729614 C19.23968506 1138.78648315 19.23968506 1138.78648315 20.95959473 1138.87747192 C23.74914551 1139.12698364 23.74914551 1139.12698364 26.74914551 1140.12698364 C29.74800235 1140.22446258 32.72297459 1140.26691097 35.72180176 1140.25979614 C36.60065536 1140.26075287 37.47950897 1140.26170959 38.38499451 1140.26269531 C40.24181185 1140.26337557 42.09863157 1140.26153204 43.95544434 1140.25735474 C46.8040498 1140.25199793 49.65249804 1140.25730823 52.50109863 1140.26370239 C54.30383336 1140.26304171 56.10656798 1140.26176075 57.90930176 1140.25979614 C59.19212791 1140.26283249 59.19212791 1140.26283249 60.50086975 1140.26593018 C64.75973918 1140.37168682 64.75973918 1140.37168682 68.74914551 1139.12698364 C70.76905618 1138.94934585 72.7939998 1138.82791634 74.81945801 1138.73245239 C76.09208496 1138.66638794 77.36471191 1138.60032349 78.67590332 1138.53225708 C79.35866333 1138.49741211 80.04142334 1138.46256714 80.74487305 1138.42666626 C106.84812424 1137.05139321 132.26059929 1133.73461319 157.75646973 1127.81448364 C160.41713029 1127.20325668 163.08101753 1126.62345464 165.75305176 1126.06448364 C177.25024752 1123.64838832 188.49740091 1120.49623864 199.74914551 1117.12698364 C200.47907715 1116.90897095 201.20900879 1116.69095825 201.96105957 1116.46633911 C223.05390958 1110.12460071 243.86208111 1102.61374581 263.74914551 1093.12698364 C265.05177112 1092.52507615 266.35520007 1091.92490506 267.65930176 1091.32620239 C283.29776616 1084.1189101 298.37495925 1075.99932541 313.31164551 1067.43948364 C314.39373291 1066.82194214 315.47582031 1066.20440063 316.59069824 1065.56814575 C322.39859227 1062.21110857 327.97359374 1058.68179413 333.42810059 1054.77713013 C335.61117189 1053.22507596 337.82230569 1051.73872128 340.06555176 1050.27542114 C363.24581063 1035.15188013 386.92125065 1017.68290087 406.18273926 997.69729614 C407.94395409 995.93168925 409.79537457 994.31473767 411.68664551 992.68948364 C417.97405867 987.2517209 423.63153791 981.3510198 429.04211426 975.04885864 C430.66917113 973.21702345 432.3621688 971.51570253 434.12414551 969.81448364 C437.83660786 966.1597707 441.05830677 962.1724884 444.31945801 958.11526489 C446.35154632 955.61599229 448.42925037 953.16903604 450.53918457 950.73562622 C462.65345704 936.70495915 473.49661169 921.55706756 483.74914551 906.12698364 C484.13763672 905.5428772 484.52612793 904.95877075 484.9263916 904.35696411 C499.27810733 882.66137341 511.98447927 859.78436316 522.81896973 836.14309692 C523.62354493 834.39921714 524.45178029 832.66628996 525.28430176 830.93557739 C533.97166778 812.76228524 540.83827133 793.77212884 546.9576416 774.60305786 C547.61187909 772.55639637 548.28194172 770.51480093 548.95617676 768.47463989 C551.92399904 759.28739722 554.00964957 749.88201359 556.19396973 740.48538208 C556.88628622 737.54440699 557.6247631 734.61639084 558.37414551 731.68948364 C561.79598586 718.00212225 564.16417695 704.22984068 566.27160645 690.28616333 C566.57197278 688.29907724 566.87667999 686.31263761 567.18762207 684.32717896 C569.46843952 669.63396961 570.40738385 654.94814441 571.10314941 640.11013794 C571.13984741 639.34752655 571.17654541 638.58491516 571.21435547 637.79919434 C571.28263141 636.36018563 571.34721415 634.92099523 571.4074707 633.48162842 C571.56045214 630.22682175 571.91310827 627.26890656 572.74914551 624.12698364 C572.83804811 622.66025845 572.87974694 621.19014903 572.88195801 619.72073364 C572.88324707 618.89444458 572.88453613 618.06815552 572.88586426 617.21682739 C572.88006348 615.93485474 572.88006348 615.93485474 572.87414551 614.62698364 C572.8780127 613.77233521 572.88187988 612.91768677 572.88586426 612.03713989 C572.8845752 611.21085083 572.88328613 610.38456177 572.88195801 609.53323364 C572.88083008 608.7836438 572.87970215 608.03405396 572.87854004 607.26174927 C572.8210727 605.15533721 572.8210727 605.15533721 572.26330566 603.28909302 C571.53740607 600.23659215 571.50618178 597.26125678 571.38977051 594.12698364 C571.32914355 592.68544759 571.26732034 591.24396148 571.20446777 589.80252075 C571.15529709 588.66096024 571.15529709 588.66096024 571.10513306 587.49633789 C570.28296314 569.1167093 568.1529155 551.09433892 565.33654785 532.92288208 C564.83034356 529.65169993 564.34141336 526.37879418 563.86242676 523.10354614 C562.56115713 514.33999566 560.90873255 505.72360066 558.74914551 497.12698364 C558.45137207 495.89979614 558.15359863 494.67260864 557.84680176 493.40823364 C554.40687551 479.29891407 550.51496824 465.34541682 546.12414551 451.50198364 C545.83499268 450.58981079 545.54583984 449.67763794 545.2479248 448.73782349 C541.64425695 437.50778877 537.19007958 426.62916392 532.78234863 415.6958313 C531.83296539 413.33538459 530.89190935 410.97178973 529.95227051 408.60745239 C526.37587879 399.67719309 522.40739195 391.04393062 517.9810791 382.50393677 C516.52776152 379.69983451 515.08646845 376.88964061 513.64367676 374.08010864 C512.55464977 371.97031185 511.46480831 369.86093527 510.37414551 367.75198364 C509.8498999 366.73410767 509.3256543 365.71623169 508.78552246 364.66751099 C508.29140869 363.71827759 507.79729492 362.76904419 507.28820801 361.79104614 C506.84686523 360.93978149 506.40552246 360.08851685 505.95080566 359.2114563 C504.79726353 357.00213599 504.79726353 357.00213599 502.74914551 355.12698364 C502.74914551 352.81448364 502.74914551 352.81448364 503.74914551 350.12698364 C505.18152865 348.85737131 506.62416554 347.59438547 508.14758301 346.43557739 C510.19528319 344.76245651 511.72579275 342.74867974 513.37414551 340.69338989 C514.84951566 339.01264151 516.4139946 337.63058063 518.12414551 336.18948364 C523.13560102 331.93357199 527.69321017 327.23509185 532.2935791 322.54519653 C535.07153608 319.72987607 537.83521686 316.98518578 540.89758301 314.47854614 C544.44415166 311.55384158 547.58068457 308.34449668 550.76135254 305.03030396 C553.10236472 302.59524896 555.4566466 300.17350794 557.81164551 297.75198364 C559.01530762 296.48547974 559.01530762 296.48547974 560.24328613 295.19338989 C561.40827637 294.00422974 561.40827637 294.00422974 562.59680176 292.79104614 C563.29813232 292.06353149 563.99946289 291.33601685 564.7220459 290.5864563 C566.74914551 289.12698364 566.74914551 289.12698364 568.88806152 289.2361145 C571.92792241 290.69124403 572.95902937 293.19901269 574.62414551 296.06448364 C574.97146729 296.65495483 575.31878906 297.24542603 575.67663574 297.85379028 C576.38074723 299.05150904 577.08026158 300.25194289 577.77502441 301.45510864 C579.0752158 303.68661507 580.44816696 305.87122056 581.81164551 308.06448364 C584.38972488 312.37740999 586.64969868 316.8144659 588.8626709 321.32424927 C590.98180585 325.63248791 593.19301014 329.88353136 595.44909668 334.12161255 C606.49434296 354.87630443 616.33832167 376.47380435 623.8873291 398.75784302 C625.07657422 402.26651283 626.362578 405.6482801 627.93664551 409.00198364 C629.7774597 412.94223882 630.89332957 416.94332694 631.94055176 421.15823364 C632.59604202 423.56486457 633.32515415 425.89172354 634.12414551 428.25198364 C639.20193714 443.29312451 643.31198946 458.63557612 646.74914551 474.12698364 C647.26851934 476.35649081 647.7892692 478.58567805 648.31164551 480.81448364 C648.79236903 482.91829517 649.27155979 485.02245758 649.74914551 487.12698364 C649.98375488 488.14018677 650.21836426 489.15338989 650.46008301 490.19729614 C654.43919675 507.95355641 657.0911766 526.03854291 659.34994507 544.08657837 C659.62407495 546.1744166 659.92445235 548.25892501 660.24673462 550.33987427 C662.00031587 562.45093899 662.04093239 574.43882743 662.01477051 586.65823364 C662.01612166 588.90632163 662.01806593 591.15440934 662.02056885 593.40249634 C662.02349892 598.08884493 662.01929116 602.77511671 662.0098877 607.4614563 C661.99849456 613.42545947 662.00506545 619.38928253 662.01703262 625.35327911 C662.02430874 629.98793866 662.02193707 634.62255651 662.01677704 639.25721741 C662.0154564 641.45453412 662.01703168 643.6518548 662.02173615 645.84916687 C662.04227156 658.13182683 661.60961274 669.97783645 659.74914551 682.12698364 C659.4144925 684.64630788 659.09981251 687.16764728 658.78430176 689.68948364 C655.66106798 713.7103364 655.66106798 713.7103364 653.36242676 724.99807739 C652.93364059 727.1857062 652.58299493 729.38944402 652.29211426 731.59963989 C651.73114816 735.24390167 650.77350416 738.58626568 649.74914551 742.12698364 C649.17056748 744.69667543 648.63572013 747.27371634 648.10070801 749.85281372 C645.73000146 761.2781953 642.79816019 772.4367347 639.4810791 783.61917114 C638.07877335 788.42386918 636.77904416 793.25805418 635.48547363 798.0930481 C634.35065922 802.25024499 633.00198701 806.25549766 631.45202637 810.27615356 C630.50068237 812.78123826 629.68888291 815.32462045 628.87414551 817.87698364 C627.18506426 822.99541166 625.20890669 827.92242088 623.09289551 832.87698364 C621.59004374 836.51178793 620.22867196 840.18513021 618.87414551 843.87698364 C615.82941591 852.11201804 612.37864913 860.13448089 608.74914551 868.12698364 C608.4642627 868.75459595 608.17937988 869.38220825 607.88586426 870.02883911 C601.69789511 883.59504316 595.14210835 896.90989053 587.63195801 909.79495239 C585.28674025 913.94530663 583.20374587 918.1953164 581.17102051 922.50588989 C579.63359295 925.33999399 577.77234045 927.62263902 575.74914551 930.12698364 C574.77020666 931.81191324 573.83282174 933.52161455 572.93664551 935.25198364 C568.64471089 943.28449604 563.88209379 950.94840886 558.20617676 958.08010864 C556.59358926 960.26697782 556.59358926 960.26697782 554.93273926 963.37698364 C552.62754024 967.47922593 549.85974277 971.14926358 546.99914551 974.87698364 C545.92421697 976.29180924 544.84999953 977.70717538 543.77648926 979.12307739 C543.25683594 979.80740845 542.73718262 980.4917395 542.20178223 981.19680786 C540.2810857 983.74891319 538.419541 986.34142052 536.56164551 988.93948364 C532.5183671 994.52823004 528.15244457 999.82044375 523.74914551 1005.12698364 C522.24884533 1006.98090743 520.74884437 1008.8350734 519.24914551 1010.68948364 C515.57351965 1015.18476126 511.7566994 1019.52231471 507.84680176 1023.81448364 C506.05407105 1025.79082737 504.30119324 1027.79155094 502.56164551 1029.81448364 C491.70479 1042.25830411 480.32586162 1054.65122852 467.76867676 1065.39260864 C465.43796417 1067.39422642 463.15542443 1069.44422039 460.87414551 1071.50198364 C459.60184082 1072.64667114 459.60184082 1072.64667114 458.30383301 1073.81448364 C456.65577033 1075.30630796 455.01458652 1076.80578403 453.38195801 1078.31448364 C447.08706409 1084.09340265 440.48808289 1089.36757591 433.7310791 1094.5864563 C431.64912064 1096.20473147 429.5830101 1097.84176431 427.51867676 1099.48245239 C418.28380215 1106.79211813 408.8381868 1113.63387061 399.05383301 1120.18948364 C396.1233539 1122.15917694 393.28173196 1124.20769361 390.47180176 1126.34573364 C387.83999762 1128.34299212 385.25695747 1130.11126755 382.31164551 1131.62698364 C379.34574442 1133.20280719 376.56054952 1134.88830467 373.79992676 1136.79885864 C367.84083637 1140.80546375 361.61585368 1144.33408619 355.37414551 1147.87698364 C354.45189682 1148.40206009 354.45189682 1148.40206009 353.51101685 1148.93774414 C333.94470109 1160.07081139 314.15065725 1170.0677406 293.41955566 1178.84402466 C289.07424282 1180.68539396 284.76587507 1182.57616522 280.48742676 1184.56838989 C274.00948378 1187.52667709 267.37437978 1190.00014084 260.68664551 1192.43948364 C260.03707886 1192.67687256 259.38751221 1192.91426147 258.71826172 1193.15884399 C231.99352192 1202.89896801 204.53530649 1210.88401262 176.6895752 1216.71829224 C174.82441612 1217.11113022 172.96247081 1217.51913387 171.10070801 1217.92776489 C158.750788 1220.63364624 146.472266 1223.04962609 133.90319824 1224.42581177 C129.57813696 1224.90022798 125.29471477 1225.48647832 120.99914551 1226.18948364 C115.48562842 1227.07831259 110.00182302 1227.54705553 104.42883301 1227.88088989 C101.64978659 1228.03335677 101.64978659 1228.03335677 98.74914551 1229.12698364 C97.33444722 1229.21738251 95.91587441 1229.25325741 94.49829102 1229.25396729 C93.19862144 1229.25819702 93.19862144 1229.25819702 91.87269592 1229.26251221 C90.92506882 1229.26048798 89.97744171 1229.25846375 89.00109863 1229.25637817 C88.00086166 1229.25813049 87.00062469 1229.25988281 85.97007751 1229.26168823 C82.65683264 1229.26609703 79.34364095 1229.26317215 76.03039551 1229.25979614 C73.73258453 1229.26046946 71.43477362 1229.26143972 69.13696289 1229.26269531 C64.31839317 1229.26417097 59.49984198 1229.26202195 54.68127441 1229.25735474 C48.49706803 1229.25165754 42.31290505 1229.25493725 36.12870026 1229.2609272 C31.38303295 1229.26453636 26.63737598 1229.26339258 21.89170837 1229.26079941 C19.61107885 1229.26013112 17.33044839 1229.26095513 15.04981995 1229.26327896 C11.86558539 1229.26581127 8.68142165 1229.26195664 5.49719238 1229.25637817 C4.07575172 1229.25941452 4.07575172 1229.25941452 2.62559509 1229.26251221 C1.75914871 1229.25969238 0.89270233 1229.25687256 0 1229.25396729 C-0.75289558 1229.25359026 -1.50579117 1229.25321323 -2.28150177 1229.25282478 C-4.25085449 1229.12698364 -4.25085449 1229.12698364 -7.25085449 1228.12698364 C-8.89285443 1227.93563995 -10.53987102 1227.78574589 -12.18835449 1227.66213989 C-13.16675293 1227.58415161 -14.14515137 1227.50616333 -15.15319824 1227.42581177 C-17.18693752 1227.27065259 -19.22078927 1227.11695926 -21.25476074 1226.96487427 C-27.19226935 1226.48878981 -32.96365876 1225.72203321 -38.81237793 1224.5930481 C-41.82129048 1224.01795658 -44.83956794 1223.59304072 -47.87585449 1223.18948364 C-53.31114049 1222.42926192 -58.72003156 1221.57065978 -64.12585449 1220.62698364 C-64.81501953 1220.50847046 -65.50418457 1220.38995728 -66.2142334 1220.26785278 C-70.21391143 1219.55888458 -74.13084792 1218.67995706 -78.06726074 1217.66702271 C-82.45655028 1216.58147838 -86.89081925 1215.69067565 -91.31335449 1214.75198364 C-101.31886207 1212.60241588 -111.3560926 1210.43557756 -121.07263184 1207.18215942 C-124.0883072 1206.18094964 -127.11504536 1205.25392238 -130.16101074 1204.34963989 C-161.76239294 1194.84711074 -193.11265493 1183.34665293 -222.41638184 1168.07424927 C-224.9874239 1166.74664171 -227.58175441 1165.46777608 -230.17590332 1164.18606567 C-233.54364695 1162.5183319 -236.89808129 1160.82456969 -240.25085449 1159.12698364 C-240.89538574 1158.80181763 -241.53991699 1158.47665161 -242.20397949 1158.14163208 C-251.81986241 1153.2615715 -261.12354481 1147.91440674 -270.37585449 1142.37698364 C-271.44311768 1141.73881714 -272.51038086 1141.10065063 -273.60998535 1140.44314575 C-278.99090621 1137.19484205 -284.17536221 1133.83162491 -289.25085449 1130.12698364 C-290.94703619 1129.1668808 -292.64346682 1128.20718398 -294.34460449 1127.25588989 C-298.48453419 1124.80416923 -302.34388574 1121.92885235 -306.25085449 1119.12698364 C-306.90553711 1118.66082642 -307.56021973 1118.19466919 -308.23474121 1117.71438599 C-318.45155448 1110.43769597 -328.47546593 1102.9861512 -338.25085449 1095.12698364 C-338.90328125 1094.60604126 -339.55570801 1094.08509888 -340.22790527 1093.54837036 C-347.99217125 1087.34616786 -355.59818392 1081.06052178 -362.89147949 1074.30667114 C-364.89675977 1072.45411088 -366.93032334 1070.65551681 -369.00085449 1068.87698364 C-381.43006957 1058.0556547 -393.81027623 1046.68416103 -404.51647949 1034.14260864 C-406.5099803 1031.82583743 -408.56639837 1029.5727838 -410.62585449 1027.31448364 C-414.63816475 1022.87155065 -418.4426541 1018.2878707 -422.20788574 1013.63479614 C-423.815787 1011.66104355 -425.44792194 1009.72799984 -427.12585449 1007.81448364 C-436.3997006 997.06293678 -444.79407373 985.52195751 -453.25085449 974.12698364 C-453.66029297 973.57816528 -454.06973145 973.02934692 -454.49157715 972.46389771 C-461.0283119 963.69476983 -461.0283119 963.69476983 -463.31335449 959.56448364 C-464.92113007 956.71197859 -466.60303033 954.15893747 -468.50085449 951.50198364 C-474.27260065 943.3718896 -479.34244459 934.7985078 -484.25085449 926.12698364 C-485.18827214 924.60609955 -486.12578121 923.0852718 -487.06335449 921.56448364 C-489.73493932 917.12738764 -492.08293639 912.57990147 -494.36340332 907.93118286 C-496.48327704 903.62266418 -498.69444473 899.37095138 -500.95080566 895.13235474 C-511.99605195 874.37766285 -521.84003065 852.78016293 -529.38903809 830.49612427 C-530.57828321 826.98745445 -531.86428698 823.60568718 -533.43835449 820.25198364 C-535.27916869 816.31172846 -536.39503855 812.31064034 -537.44226074 808.09573364 C-538.09775101 805.68910271 -538.82686313 803.36224375 -539.62585449 801.00198364 C-544.70364613 785.96084277 -548.81369845 770.61839116 -552.25085449 755.12698364 C-552.77022832 752.89747647 -553.29097818 750.66828924 -553.81335449 748.43948364 C-554.29407801 746.33567211 -554.77326878 744.2315097 -555.25085449 742.12698364 C-555.60276855 740.60717896 -555.60276855 740.60717896 -555.96179199 739.05667114 C-559.94090574 721.30041088 -562.59288559 703.21542438 -564.85165405 685.16738892 C-565.12578394 683.07955068 -565.42616133 680.99504228 -565.7484436 678.91409302 C-567.50202485 666.80302829 -567.54264138 654.81513986 -567.51647949 642.59573364 C-567.51783065 640.34764565 -567.51977491 638.09955795 -567.52227783 635.85147095 C-567.5252079 631.16512235 -567.52100014 626.47885057 -567.51159668 621.79251099 C-567.50020354 615.82850782 -567.50677444 609.86468476 -567.51874161 603.90068817 C-567.52601772 599.26602862 -567.52364605 594.63141078 -567.51848602 589.99674988 C-567.51716538 587.79943317 -567.51874066 585.60211249 -567.52344513 583.40480042 C-567.54398054 571.12214045 -567.11132172 559.27613084 -565.25085449 547.12698364 C-564.91620149 544.60765941 -564.60152149 542.08632001 -564.28601074 539.56448364 C-561.16277697 515.54363088 -561.16277697 515.54363088 -558.86413574 504.25588989 C-558.43534957 502.06826109 -558.08470391 499.86452327 -557.79382324 497.65432739 C-557.23285714 494.01006562 -556.27521315 490.66770161 -555.25085449 487.12698364 C-554.67227647 484.55729186 -554.13742911 481.98025094 -553.60241699 479.40115356 C-551.23171045 467.97577198 -548.29986917 456.81723258 -544.98278809 445.63479614 C-543.58048233 440.83009811 -542.28075315 435.99591311 -540.98718262 431.16091919 C-539.8523682 427.0037223 -538.50369599 422.99846962 -536.95373535 418.97781372 C-536.00239135 416.47272902 -535.1905919 413.92934684 -534.37585449 411.37698364 C-532.68677325 406.25855562 -530.71061567 401.3315464 -528.59460449 396.37698364 C-527.09175272 392.74217936 -525.73038094 389.06883708 -524.37585449 385.37698364 C-521.33112489 377.14194924 -517.88035812 369.1194864 -514.25085449 361.12698364 C-513.82353027 360.18556519 -513.82353027 360.18556519 -513.38757324 359.22512817 C-507.1996041 345.65892413 -500.64381733 332.34407675 -493.13366699 319.45901489 C-490.78844924 315.30866065 -488.70545486 311.05865089 -486.67272949 306.74807739 C-485.13530193 303.91397329 -483.27404944 301.63132826 -481.25085449 299.12698364 C-480.27191564 297.44205404 -479.33453072 295.73235273 -478.43835449 294.00198364 C-474.14641988 285.96947125 -469.38380277 278.30555843 -463.70788574 271.17385864 C-462.09529824 268.98698947 -462.09529824 268.98698947 -460.43444824 265.87698364 C-458.12924923 261.77474136 -455.36145175 258.1047037 -452.50085449 254.37698364 C-451.42592596 252.96215804 -450.35170852 251.54679191 -449.27819824 250.13088989 C-448.75854492 249.44655884 -448.2388916 248.76222778 -447.70349121 248.05715942 C-445.78279469 245.50505409 -443.92124999 242.91254676 -442.06335449 240.31448364 C-438.02007608 234.72573725 -433.65415355 229.43352354 -429.25085449 224.12698364 C-427.75055432 222.27305986 -426.25055335 220.41889389 -424.75085449 218.56448364 C-421.07522864 214.06920603 -417.25840838 209.73165258 -413.34851074 205.43948364 C-411.55578003 203.46313992 -409.80290222 201.46241634 -408.06335449 199.43948364 C-397.20649899 186.99566318 -385.8275706 174.60273877 -373.27038574 163.86135864 C-370.93967315 161.85974087 -368.65713341 159.8097469 -366.37585449 157.75198364 C-365.52765137 156.98885864 -364.67944824 156.22573364 -363.80554199 155.43948364 C-362.15747931 153.94765932 -360.5162955 152.44818326 -358.88366699 150.93948364 C-352.58877307 145.16056463 -345.98979187 139.88639138 -339.23278809 134.66751099 C-337.15082963 133.04923581 -335.08471908 131.41220298 -333.02038574 129.77151489 C-323.78551114 122.46184916 -314.33989578 115.62009668 -304.55554199 109.06448364 C-301.62506289 107.09479034 -298.78344094 105.04627367 -295.97351074 102.90823364 C-293.3417066 100.91097516 -290.75866645 99.14269974 -287.81335449 97.62698364 C-284.84745341 96.0511601 -282.06225851 94.36566262 -279.30163574 92.45510864 C-273.34254535 88.44850354 -267.11756267 84.9198811 -260.87585449 81.37698364 C-260.26102203 81.02693268 -259.64618958 80.67688171 -259.01272583 80.31622314 C-239.44641007 69.1831559 -219.65236623 59.18622669 -198.92126465 50.40994263 C-194.57595181 48.56857333 -190.26758405 46.67780207 -185.98913574 44.68557739 C-179.51119276 41.7272902 -172.87608876 39.25382645 -166.18835449 36.81448364 C-165.53878784 36.57709473 -164.88922119 36.33970581 -164.2199707 36.09512329 C-137.4952309 26.35499928 -110.03701547 18.36995466 -82.19128418 12.53567505 C-80.3261251 12.14283707 -78.4641798 11.73483342 -76.60241699 11.32620239 C-64.25249698 8.62032104 -51.97397499 6.2043412 -39.40490723 4.82815552 C-35.07984594 4.3537393 -30.79642376 3.76748896 -26.50085449 3.06448364 C-20.9873374 2.17565469 -15.503532 1.70691176 -9.93054199 1.37307739 C-6.46036447 1.05438762 -3.52675826 0.00176609 0 0 Z " fill="#009159" transform="translate(710.2508544921875,153.87301635742188)"/>
<path d="M0 0 C0.86644638 -0.00281982 1.73289276 -0.00563965 2.62559509 -0.00854492 C3.5732222 -0.00652069 4.5208493 -0.00449646 5.49719238 -0.00241089 C6.99754784 -0.00503937 6.99754784 -0.00503937 8.5282135 -0.00772095 C11.84145838 -0.01212975 15.15465007 -0.00920486 18.46789551 -0.00582886 C20.76570648 -0.00650218 23.06351739 -0.00747243 25.36132812 -0.00872803 C30.17989784 -0.01020368 34.99844904 -0.00805466 39.8170166 -0.00338745 C46.00122298 0.00230975 52.18538597 -0.00096996 58.36959076 -0.00695992 C63.11525806 -0.01056908 67.86091503 -0.0094253 72.60658264 -0.00683212 C74.88721217 -0.00616384 77.16784263 -0.00698785 79.44847107 -0.00931168 C82.63270563 -0.01184398 85.81686937 -0.00798935 89.00109863 -0.00241089 C89.94872574 -0.00443512 90.89635284 -0.00645935 91.87269592 -0.00854492 C92.7391423 -0.0057251 93.60558868 -0.00290527 94.49829102 0 C95.2511866 0.00037703 96.00408218 0.00075405 96.77979279 0.0011425 C98.74914551 0.12698364 98.74914551 0.12698364 101.74914551 1.12698364 C103.39114545 1.31832733 105.03816203 1.46822139 106.68664551 1.59182739 C107.66504395 1.66981567 108.64344238 1.74780396 109.65148926 1.82815552 C111.68522853 1.98331469 113.71908028 2.13700802 115.75305176 2.28909302 C121.69056036 2.76517748 127.46194977 3.53193407 133.31066895 4.66091919 C136.31958149 5.2360107 139.33785896 5.66092657 142.37414551 6.06448364 C147.80943151 6.82470536 153.21832257 7.68330751 158.62414551 8.62698364 C159.31331055 8.74549683 160.00247559 8.86401001 160.71252441 8.9861145 C164.71220245 9.6950827 168.62913893 10.57401023 172.56555176 11.58694458 C176.9548413 12.67248891 181.38911026 13.56329163 185.81164551 14.50198364 C195.81715308 16.6515514 205.85438361 18.81838972 215.57092285 22.07180786 C218.58659821 23.07301764 221.61333637 24.0000449 224.65930176 24.90432739 C256.26068396 34.40685654 287.61094595 45.90731435 316.91467285 61.17971802 C319.48571491 62.50732558 322.08004542 63.78619121 324.67419434 65.06790161 C328.04193797 66.73563539 331.3963723 68.4293976 334.74914551 70.12698364 C335.71594238 70.61473267 335.71594238 70.61473267 336.70227051 71.11233521 C346.31815343 75.99239579 355.62183583 81.33956055 364.87414551 86.87698364 C365.94140869 87.51515015 367.00867187 88.15331665 368.10827637 88.81082153 C373.48919723 92.05912524 378.67365323 95.42234237 383.74914551 99.12698364 C385.4453272 100.08708649 387.14175784 101.0467833 388.84289551 101.99807739 C394.55588337 105.38138373 399.8479831 109.47118192 405.21789551 113.36526489 C406.0141333 113.94220093 406.81037109 114.51913696 407.6307373 115.11355591 C409.2275911 116.27194448 410.82285877 117.43252331 412.41638184 118.5954895 C413.16170166 119.13697632 413.90702148 119.67846313 414.67492676 120.23635864 C415.37956055 120.75005005 416.08419434 121.26374146 416.81018066 121.79299927 C418.87160744 123.27021422 418.87160744 123.27021422 421.79211426 124.70510864 C423.74914551 126.12698364 423.74914551 126.12698364 424.26477051 128.62307739 C423.63838739 131.66483176 422.94020912 132.32891686 420.49914551 134.18948364 C416.03236897 137.80430815 412.05676066 141.75606321 408.05090332 145.86355591 C405.10081323 148.86216077 402.03633156 151.51086588 398.74914551 154.12698364 C397.06966057 155.7822979 395.40674783 157.45000026 393.74914551 159.12698364 C392.55085209 160.32663906 391.35181974 161.52555663 390.15222168 162.72390747 C389.49191452 163.38421463 388.83160736 164.04452179 388.15129089 164.72483826 C379.01724243 173.85888672 369.88319397 182.99293518 360.74914551 192.12698364 C357.29971058 190.44712894 354.19916969 188.49309135 351.01477051 186.34573364 C349.88020765 185.58346707 348.74560318 184.82126241 347.61096191 184.05911255 C347.02131653 183.66185974 346.43167114 183.26460693 345.82415771 182.85531616 C323.88823035 168.09124345 301.71019632 153.91044711 277.57727051 142.97219849 C274.91104151 141.73949485 272.30090906 140.40323958 269.68664551 139.06448364 C249.50300482 128.90419776 228.24038067 121.00677155 206.74914551 114.12698364 C205.01277832 113.55850708 205.01277832 113.55850708 203.24133301 112.97854614 C190.40290861 108.87419052 177.21318019 105.90182205 164.08361816 102.8923645 C161.9233696 102.39651011 159.76411513 101.89629648 157.6060791 101.39089966 C131.49205259 95.30388036 105.40850965 92.08602105 78.67590332 90.72171021 C77.40327637 90.65564575 76.13064941 90.5895813 74.81945801 90.52151489 C73.69297852 90.46842163 72.56649902 90.41532837 71.40588379 90.36062622 C68.74914551 90.12698364 68.74914551 90.12698364 66.74914551 89.12698364 C63.79456373 89.02771719 60.86405249 88.98717749 57.90930176 88.99417114 C57.03140488 88.99321442 56.153508 88.99225769 55.24900818 88.99127197 C53.39041065 88.99059082 51.53181075 88.99244062 49.67321777 88.99661255 C46.82672782 89.00195533 43.98039612 88.99666868 41.13391113 88.99026489 C39.32987433 88.99092581 37.52583762 88.99220726 35.72180176 88.99417114 C34.86860855 88.99214691 34.01541534 88.99012268 33.1363678 88.98803711 C29.76028653 89.00143757 26.9740878 89.05200288 23.74914551 90.12698364 C21.76923508 90.29969117 19.78495544 90.4238711 17.79992676 90.52151489 C15.96313354 90.62073242 15.96313354 90.62073242 14.0892334 90.72195435 C13.43423859 90.75680939 12.77924377 90.79166443 12.10440063 90.82757568 C-12.49923717 92.17543322 -36.72314872 95.127787 -60.77966309 100.58059692 C-64.21548627 101.34026619 -67.66697438 101.98049813 -71.12585449 102.62698364 C-78.81548538 104.15636579 -86.30548109 106.26151448 -93.83239746 108.43557739 C-96.30204022 109.141617 -98.77725734 109.82408126 -101.25476074 110.50198364 C-118.61578786 115.29055111 -135.74128193 120.90152279 -152.25085449 128.12698364 C-153.85687798 128.80324041 -155.46373175 129.47752696 -157.07116699 130.15042114 C-168.01650416 134.75114253 -178.72993907 139.62500725 -189.25085449 145.12698364 C-189.96257812 145.49855591 -190.67430176 145.87012817 -191.40759277 146.25296021 C-196.37006266 148.85032414 -201.3146391 151.48012009 -206.25085449 154.12698364 C-207.81706543 154.96422974 -207.81706543 154.96422974 -209.41491699 155.81838989 C-215.46978076 159.08460513 -221.398613 162.51059852 -227.25085449 166.12698364 C-228.27275879 166.7578186 -228.27275879 166.7578186 -229.31530762 167.40139771 C-239.90491628 173.95794265 -250.2100799 180.75956529 -260.25085449 188.12698364 C-261.17897949 188.79085083 -262.10710449 189.45471802 -263.06335449 190.13870239 C-275.26795035 198.88414681 -286.87526728 208.33689776 -298.25085449 218.12698364 C-298.96628418 218.74057739 -299.68171387 219.35417114 -300.41882324 219.98635864 C-302.3782899 221.68321637 -304.31720168 223.40077251 -306.25085449 225.12698364 C-307.44581543 226.18272583 -307.44581543 226.18272583 -308.66491699 227.25979614 C-315.67907691 233.56266097 -322.38621707 240.15644194 -329.06335449 246.81448364 C-329.9588501 247.70538696 -330.8543457 248.59629028 -331.77697754 249.51419067 C-336.80928932 254.55823279 -341.63268605 259.70257172 -346.25085449 265.12698364 C-347.22392956 266.24494055 -348.19785652 267.36215668 -349.17272949 268.47854614 C-364.40031471 286.05639521 -378.6144299 304.59568452 -391.25085449 324.12698364 C-392.07270233 325.36076919 -392.89569527 326.59379245 -393.71960449 327.82620239 C-410.69630561 353.39666091 -425.8583898 381.07368094 -437.06604004 409.67263794 C-438.56880428 413.49330068 -440.18895029 417.22592802 -441.93835449 420.93948364 C-443.88058757 425.12085167 -445.27348943 429.2639649 -446.51647949 433.69729614 C-447.23287873 436.06751066 -448.10083532 438.28441775 -449.06335449 440.56448364 C-456.15217737 457.83839687 -460.47767908 476.27083991 -464.50109863 494.4524231 C-464.79875122 495.79179932 -464.79875122 495.79179932 -465.10241699 497.15823364 C-465.36272705 498.34255981 -465.36272705 498.34255981 -465.6282959 499.55081177 C-466.10187309 501.51049278 -466.64585991 503.45330751 -467.22131348 505.38552856 C-468.36863469 509.55500866 -469.15584424 513.69837056 -469.87194824 517.95901489 C-470.01655991 518.81257568 -470.16117157 519.66613647 -470.31016541 520.54556274 C-470.77794855 523.34222812 -471.23499599 526.14044503 -471.68835449 528.93948364 C-471.9227121 530.37788101 -471.9227121 530.37788101 -472.1618042 531.84533691 C-475.2185308 550.84672198 -476.87042477 569.84196445 -477.85887146 589.05410767 C-478.03509927 592.32849144 -478.30873929 595.53074632 -478.77429199 598.77810669 C-479.2206278 601.9145761 -479.37997302 604.86908062 -479.38366699 608.03323364 C-479.38495605 609.10702271 -479.38624512 610.18081177 -479.38757324 611.28713989 C-479.38370605 612.38928833 -479.37983887 613.49143677 -479.37585449 614.62698364 C-479.37972168 615.72913208 -479.38358887 616.83128052 -479.38757324 617.96682739 C-479.38628418 619.04061646 -479.38499512 620.11440552 -479.38366699 621.22073364 C-479.3819751 622.66996216 -479.3819751 622.66996216 -479.38024902 624.14846802 C-479.23356746 627.52491152 -478.73125345 630.78196704 -478.25085449 634.12698364 C-478.003661 637.0275696 -477.83975789 639.93175468 -477.67272949 642.83792114 C-477.56276461 644.57885169 -477.45205885 646.31973557 -477.34069824 648.06057739 C-477.17175103 650.73262351 -477.00637595 653.40457333 -476.8548584 656.07766724 C-475.82326452 674.05344765 -472.97121075 691.17263232 -470.25085449 709.12698364 C-500.28085449 709.12698364 -530.31085449 709.12698364 -561.25085449 709.12698364 C-564.68343876 689.67567278 -564.68343876 689.67567278 -565.37585449 680.31448364 C-565.52145691 678.45358256 -565.66978218 676.592892 -565.82116699 674.73245239 C-565.880625 673.93992065 -565.94008301 673.14738892 -566.00134277 672.33084106 C-566.19041172 670.16286695 -566.19041172 670.16286695 -566.75809193 668.25696945 C-567.27015328 666.04356387 -567.37939381 664.11262531 -567.38456726 661.84335327 C-567.38883224 660.99431931 -567.39309723 660.14528534 -567.39749146 659.27052307 C-567.39703827 658.34691483 -567.39658508 657.42330658 -567.39611816 656.47171021 C-567.39947678 655.49220901 -567.40283539 654.51270782 -567.40629578 653.50352478 C-567.4158087 650.25820654 -567.4177498 647.01293998 -567.41882324 643.76760864 C-567.4220382 641.50236999 -567.42540245 639.23713153 -567.4289093 636.97189331 C-567.43490326 632.21385213 -567.43674919 627.45582911 -567.43615723 622.69778442 C-567.43605619 616.63928545 -567.44964676 610.58090521 -567.46692944 604.52243423 C-567.47812826 599.83628826 -567.48007394 595.15017013 -567.4795475 590.46401215 C-567.48071815 588.2331985 -567.48508772 586.0023839 -567.49287987 583.77158356 C-567.53212477 571.36369018 -567.14279431 559.39890054 -565.25085449 547.12698364 C-564.91569893 544.60771152 -564.60128525 542.08636771 -564.28601074 539.56448364 C-561.16277697 515.54363088 -561.16277697 515.54363088 -558.86413574 504.25588989 C-558.43534957 502.06826109 -558.08470391 499.86452327 -557.79382324 497.65432739 C-557.23285714 494.01006562 -556.27521315 490.66770161 -555.25085449 487.12698364 C-554.67227647 484.55729186 -554.13742911 481.98025094 -553.60241699 479.40115356 C-551.23171045 467.97577198 -548.29986917 456.81723258 -544.98278809 445.63479614 C-543.58048233 440.83009811 -542.28075315 435.99591311 -540.98718262 431.16091919 C-539.8523682 427.0037223 -538.50369599 422.99846962 -536.95373535 418.97781372 C-536.00239135 416.47272902 -535.1905919 413.92934684 -534.37585449 411.37698364 C-532.68677325 406.25855562 -530.71061567 401.3315464 -528.59460449 396.37698364 C-527.09175272 392.74217936 -525.73038094 389.06883708 -524.37585449 385.37698364 C-521.33112489 377.14194924 -517.88035812 369.1194864 -514.25085449 361.12698364 C-513.82353027 360.18556519 -513.82353027 360.18556519 -513.38757324 359.22512817 C-507.1996041 345.65892413 -500.64381733 332.34407675 -493.13366699 319.45901489 C-490.78844924 315.30866065 -488.70545486 311.05865089 -486.67272949 306.74807739 C-485.13530193 303.91397329 -483.27404944 301.63132826 -481.25085449 299.12698364 C-480.27191564 297.44205404 -479.33453072 295.73235273 -478.43835449 294.00198364 C-474.14641988 285.96947125 -469.38380277 278.30555843 -463.70788574 271.17385864 C-462.09529824 268.98698947 -462.09529824 268.98698947 -460.43444824 265.87698364 C-458.12924923 261.77474136 -455.36145175 258.1047037 -452.50085449 254.37698364 C-451.42592596 252.96215804 -450.35170852 251.54679191 -449.27819824 250.13088989 C-448.75854492 249.44655884 -448.2388916 248.76222778 -447.70349121 248.05715942 C-445.78279469 245.50505409 -443.92124999 242.91254676 -442.06335449 240.31448364 C-438.02007608 234.72573725 -433.65415355 229.43352354 -429.25085449 224.12698364 C-427.75055432 222.27305986 -426.25055335 220.41889389 -424.75085449 218.56448364 C-421.07522864 214.06920603 -417.25840838 209.73165258 -413.34851074 205.43948364 C-411.55578003 203.46313992 -409.80290222 201.46241634 -408.06335449 199.43948364 C-397.20649899 186.99566318 -385.8275706 174.60273877 -373.27038574 163.86135864 C-370.93967315 161.85974087 -368.65713341 159.8097469 -366.37585449 157.75198364 C-365.52765137 156.98885864 -364.67944824 156.22573364 -363.80554199 155.43948364 C-362.15747931 153.94765932 -360.5162955 152.44818326 -358.88366699 150.93948364 C-352.58877307 145.16056463 -345.98979187 139.88639138 -339.23278809 134.66751099 C-337.15082963 133.04923581 -335.08471908 131.41220298 -333.02038574 129.77151489 C-323.78551114 122.46184916 -314.33989578 115.62009668 -304.55554199 109.06448364 C-301.62506289 107.09479034 -298.78344094 105.04627367 -295.97351074 102.90823364 C-293.3417066 100.91097516 -290.75866645 99.14269974 -287.81335449 97.62698364 C-284.84745341 96.0511601 -282.06225851 94.36566262 -279.30163574 92.45510864 C-273.34254535 88.44850354 -267.11756267 84.9198811 -260.87585449 81.37698364 C-260.26102203 81.02693268 -259.64618958 80.67688171 -259.01272583 80.31622314 C-239.44641007 69.1831559 -219.65236623 59.18622669 -198.92126465 50.40994263 C-194.57595181 48.56857333 -190.26758405 46.67780207 -185.98913574 44.68557739 C-179.51119276 41.7272902 -172.87608876 39.25382645 -166.18835449 36.81448364 C-165.53878784 36.57709473 -164.88922119 36.33970581 -164.2199707 36.09512329 C-137.4952309 26.35499928 -110.03701547 18.36995466 -82.19128418 12.53567505 C-80.3261251 12.14283707 -78.4641798 11.73483342 -76.60241699 11.32620239 C-64.25249698 8.62032104 -51.97397499 6.2043412 -39.40490723 4.82815552 C-35.07984594 4.3537393 -30.79642376 3.76748896 -26.50085449 3.06448364 C-20.9873374 2.17565469 -15.503532 1.70691176 -9.93054199 1.37307739 C-6.46036447 1.05438762 -3.52675826 0.00176609 0 0 Z " fill="#8FD674" transform="translate(710.2508544921875,153.87301635742188)"/>
<path d="M0 0 C3.03986089 1.45512953 4.07096784 3.96289819 5.73608398 6.82836914 C6.08340576 7.41884033 6.43072754 8.00931152 6.78857422 8.61767578 C7.49268571 9.81539454 8.19220006 11.01582839 8.88696289 12.21899414 C10.18715428 14.45050057 11.56010543 16.63510606 12.92358398 18.82836914 C15.50166336 23.14129549 17.76163716 27.5783514 19.97460938 32.08813477 C22.09374433 36.39637341 24.30494862 40.64741686 26.56103516 44.88549805 C37.60628144 65.64018993 47.45026015 87.23768985 54.99926758 109.52172852 C56.1885127 113.03039833 57.47451647 116.4121656 59.04858398 119.76586914 C60.88939818 123.70612432 62.00526804 127.70721244 63.05249023 131.92211914 C63.7079805 134.32875007 64.43709262 136.65560904 65.23608398 139.01586914 C70.31387562 154.05701001 74.42392794 169.39946162 77.86108398 184.89086914 C78.38045781 187.12037631 78.90120767 189.34956355 79.42358398 191.57836914 C79.9043075 193.68218067 80.38349827 195.78634308 80.86108398 197.89086914 C81.09569336 198.90407227 81.33030273 199.91727539 81.57202148 200.96118164 C85.55113523 218.71744191 88.20311508 236.8024284 90.46188354 254.85046387 C90.73601343 256.9383021 91.03639082 259.02281051 91.3586731 261.10375977 C93.11225434 273.21482449 93.15287087 285.20271293 93.12670898 297.42211914 C93.12806014 299.67020713 93.1300044 301.91829483 93.13250732 304.16638184 C93.1354374 308.85273043 93.13122964 313.53900221 93.12182617 318.2253418 C93.11043303 324.18934497 93.11700393 330.15316803 93.1289711 336.11716461 C93.13624721 340.75182416 93.13387554 345.386442 93.12871552 350.02110291 C93.12739487 352.21841962 93.12897015 354.41574029 93.13367462 356.61305237 C93.15420206 368.8909415 92.74250046 380.74743788 90.86108398 392.89086914 C90.58467441 394.95670801 90.31175722 397.02302209 90.04467773 399.09008789 C89.79688604 400.91963794 89.54821411 402.74906903 89.29858398 404.57836914 C89.17290039 405.51358398 89.0472168 406.44879883 88.91772461 407.41235352 C88.79461914 408.31663086 88.67151367 409.2209082 88.54467773 410.15258789 C88.43696045 410.94624756 88.32924316 411.73990723 88.21826172 412.55761719 C87.84209422 415.01491918 87.34861446 417.45321677 86.86108398 419.89086914 C56.50108398 419.89086914 26.14108398 419.89086914 -5.13891602 419.89086914 C-4.52248961 414.34303149 -3.87303531 408.9040867 -3.01782227 403.40258789 C-0.33684413 385.67970286 1.54396163 368.13109498 2.31591797 350.21777344 C2.3638575 349.12023994 2.3638575 349.12023994 2.4127655 348.00053406 C2.49598079 346.02673723 2.56998642 344.05255816 2.64331055 342.07836914 C2.82040534 339.48627317 3.20436611 337.37517676 3.86108398 334.89086914 C3.94998659 333.42414395 3.99168541 331.95403453 3.99389648 330.48461914 C3.99518555 329.65833008 3.99647461 328.83204102 3.99780273 327.98071289 C3.99393555 327.12606445 3.99006836 326.27141602 3.98608398 325.39086914 C3.98995117 324.5362207 3.99381836 323.68157227 3.99780273 322.80102539 C3.99651367 321.97473633 3.99522461 321.14844727 3.99389648 320.29711914 C3.99276855 319.5475293 3.99164062 318.79793945 3.99047852 318.02563477 C3.93301117 315.91922271 3.93301117 315.91922271 3.37524414 314.05297852 C2.64934454 311.00047765 2.61812026 308.02514227 2.50170898 304.89086914 C2.44108203 303.44933309 2.37925882 302.00784698 2.31640625 300.56640625 C2.26723557 299.42484573 2.26723557 299.42484573 2.21707153 298.26022339 C1.39490162 279.8805948 -0.73514602 261.85822441 -3.55151367 243.68676758 C-4.05771796 240.41558542 -4.54664816 237.14267968 -5.02563477 233.86743164 C-6.3269044 225.10388116 -7.97932897 216.48748616 -10.13891602 207.89086914 C-10.43668945 206.66368164 -10.73446289 205.43649414 -11.04125977 204.17211914 C-14.48118602 190.06279957 -18.37309329 176.10930232 -22.76391602 162.26586914 C-23.19764526 160.89760986 -23.19764526 160.89760986 -23.64013672 159.50170898 C-27.24380458 148.27167427 -31.69798194 137.39304942 -36.10571289 126.4597168 C-37.05509613 124.09927009 -37.99615217 121.73567523 -38.93579102 119.37133789 C-42.51218273 110.44107859 -46.48066958 101.80781612 -50.90698242 93.26782227 C-52.36030001 90.46372 -53.80159307 87.6535261 -55.24438477 84.84399414 C-56.33341175 82.73419735 -57.42325322 80.62482076 -58.51391602 78.51586914 C-59.03816162 77.49799316 -59.56240723 76.48011719 -60.10253906 75.43139648 C-60.59665283 74.48216309 -61.0907666 73.53292969 -61.59985352 72.55493164 C-62.04119629 71.70366699 -62.48253906 70.85240234 -62.93725586 69.9753418 C-64.09079799 67.76602148 -64.09079799 67.76602148 -66.13891602 65.89086914 C-66.13891602 63.57836914 -66.13891602 63.57836914 -65.13891602 60.89086914 C-63.70653287 59.62125681 -62.26389599 58.35827097 -60.74047852 57.19946289 C-58.69277833 55.52634201 -57.16226877 53.51256524 -55.51391602 51.45727539 C-54.03854587 49.77652701 -52.47406692 48.39446613 -50.76391602 46.95336914 C-45.7524605 42.69745749 -41.19485135 37.99897735 -36.59448242 33.30908203 C-33.81652544 30.49376157 -31.05284466 27.74907128 -27.99047852 25.24243164 C-24.44390986 22.31772708 -21.30737695 19.10838218 -18.12670898 15.79418945 C-15.7856968 13.35913446 -13.43141492 10.93739344 -11.07641602 8.51586914 C-10.27397461 7.6715332 -9.4715332 6.82719727 -8.64477539 5.95727539 C-7.86811523 5.16450195 -7.09145508 4.37172852 -6.29125977 3.55493164 C-5.5899292 2.82741699 -4.88859863 2.09990234 -4.16601562 1.3503418 C-2.13891602 -0.10913086 -2.13891602 -0.10913086 0 0 Z " fill="#30B35E" transform="translate(1279.138916015625,443.109130859375)"/>
<path d="M0 0 C33.33 0 66.66 0 101 0 C99.43970047 3.90074883 97.80646719 7.34882424 95.8046875 11.015625 C95.16841466 12.18771419 94.53235505 13.35991915 93.89648438 14.53222656 C93.56608154 15.13941528 93.23567871 15.746604 92.89526367 16.37219238 C86.89364165 27.41825024 81.11060024 38.5091942 76 50 C75.54488037 51.01126953 75.54488037 51.01126953 75.08056641 52.04296875 C71.52409925 59.95364999 68.17426546 67.90628163 65.140625 76.03515625 C64.33935525 78.11790878 63.48345876 80.18006576 62.58862305 82.22436523 C60.12624913 87.95046434 58.25792126 93.89277175 56.29370117 99.80322266 C55.57303359 101.9683535 54.84446066 104.13070795 54.11523438 106.29296875 C49.79599005 119.18954558 46.29381298 132.21171987 43.375 145.5 C42.9680462 147.34417038 42.55923412 149.18793182 42.1484375 151.03125 C41.88812744 152.21557617 41.88812744 152.21557617 41.62255859 153.42382812 C41.1489814 155.38350913 40.60499458 157.32632387 40.02954102 159.25854492 C38.8822198 163.42802502 38.09501025 167.57138691 37.37890625 171.83203125 C37.23429459 172.68559204 37.08968292 173.53915283 36.94068909 174.4185791 C36.47290595 177.21524447 36.0158585 180.01346139 35.5625 182.8125 C35.4062616 183.77143158 35.25002319 184.73036316 35.08905029 185.71835327 C32.0323237 204.71973834 30.38042973 223.71498081 29.39198303 242.92712402 C29.21575523 246.2015078 28.9421152 249.40376268 28.4765625 252.65112305 C28.03022669 255.78759245 27.87088147 258.74209698 27.8671875 261.90625 C27.86589844 262.98003906 27.86460937 264.05382812 27.86328125 265.16015625 C27.86714844 266.26230469 27.87101562 267.36445312 27.875 268.5 C27.87113281 269.60214844 27.86726563 270.70429687 27.86328125 271.83984375 C27.86457031 272.91363281 27.86585938 273.98742187 27.8671875 275.09375 C27.86887939 276.54297852 27.86887939 276.54297852 27.87060547 278.02148438 C28.01728703 281.39792788 28.51960104 284.6549834 29 288 C29.24719349 290.90058595 29.4110966 293.80477104 29.578125 296.7109375 C29.68808988 298.45186805 29.79879564 300.19275192 29.91015625 301.93359375 C30.07910346 304.60563986 30.24447854 307.27758969 30.39599609 309.95068359 C31.42758997 327.92646401 34.27964374 345.04564868 37 363 C6.97 363 -23.06 363 -54 363 C-57.43258427 343.54868914 -57.43258427 343.54868914 -58.125 334.1875 C-58.27060242 332.32659892 -58.41892769 330.46590836 -58.5703125 328.60546875 C-58.62977051 327.81293701 -58.68922852 327.02040527 -58.75048828 326.20385742 C-58.93955723 324.03588331 -58.93955723 324.03588331 -59.50723743 322.12998581 C-60.01929879 319.91658022 -60.12853932 317.98564167 -60.13371277 315.71636963 C-60.13797775 314.86733566 -60.14224274 314.0183017 -60.14663696 313.14353943 C-60.14618378 312.21993118 -60.14573059 311.29632294 -60.14526367 310.34472656 C-60.14862228 309.36522537 -60.1519809 308.38572418 -60.15544128 307.37654114 C-60.16495421 304.13122289 -60.16689531 300.88595633 -60.16796875 297.640625 C-60.1711837 295.37538634 -60.17454796 293.11014789 -60.17805481 290.84490967 C-60.18404877 286.08686849 -60.1858947 281.32884547 -60.18530273 276.57080078 C-60.18520169 270.51230181 -60.19879227 264.45392157 -60.21607494 258.39545059 C-60.22727377 253.70930461 -60.22921945 249.02318649 -60.22869301 244.3370285 C-60.22986365 242.10621485 -60.23423323 239.87540026 -60.24202538 237.64459991 C-60.28127027 225.23670654 -59.89193982 213.2719169 -58 201 C-57.66484444 198.48072787 -57.35043076 195.95938406 -57.03515625 193.4375 C-53.91192248 169.41664724 -53.91192248 169.41664724 -51.61328125 158.12890625 C-51.18449508 155.94127745 -50.83384942 153.73753962 -50.54296875 151.52734375 C-49.98200265 147.88308198 -49.02435866 144.54071797 -48 141 C-47.42142197 138.43030821 -46.88657462 135.8532673 -46.3515625 133.27416992 C-43.98085596 121.84878834 -41.04901468 110.69024894 -37.73193359 99.5078125 C-36.32962784 94.70311447 -35.02989866 89.86892946 -33.73632812 85.03393555 C-32.60151371 80.87673866 -31.2528415 76.87148598 -29.70288086 72.85083008 C-28.75153686 70.34574538 -27.9397374 67.80236319 -27.125 65.25 C-25.43591875 60.13157198 -23.45976118 55.20456276 -21.34375 50.25 C-19.84089823 46.61519571 -18.47952645 42.94185344 -17.125 39.25 C-12.16068094 25.82308081 -6.05572947 12.97656315 0 0 Z " fill="#63C465" transform="translate(203,500)"/>
<path d="M0 0 C1.92263211 0.00197689 3.84526951 0.00086156 5.76789856 -0.00309753 C10.9638899 -0.00509874 16.15874066 0.03593747 21.35446787 0.08492017 C26.79296427 0.12880083 32.23148938 0.13280086 37.6701355 0.14109802 C47.95839203 0.16281923 58.24612535 0.22021436 68.53415191 0.29054445 C80.25113638 0.36889733 91.96814637 0.40730197 103.68532777 0.4424125 C127.77862661 0.51549987 151.87146167 0.63855513 175.96435547 0.79467773 C175.96435547 1.45467773 175.96435547 2.11467773 175.96435547 2.79467773 C175.23958008 3.04113037 174.51480469 3.28758301 173.76806641 3.54150391 C170.41538984 4.68421939 167.06487937 5.83316655 163.71435547 6.98217773 C162.00505859 7.56322266 162.00505859 7.56322266 160.26123047 8.15600586 C152.695481 10.75673224 145.31589523 13.64265745 137.96435547 16.79467773 C136.23034405 17.52080701 134.49598181 18.24609921 132.76123047 18.97045898 C121.94935825 23.53125654 111.36266392 28.3568194 100.96435547 33.79467773 C99.89677002 34.35203613 99.89677002 34.35203613 98.80761719 34.9206543 C93.8451473 37.51801823 88.90057086 40.14781418 83.96435547 42.79467773 C82.92021484 43.3528418 81.87607422 43.91100586 80.80029297 44.48608398 C74.7454292 47.75229923 68.81659696 51.17829261 62.96435547 54.79467773 C62.28308594 55.21523438 61.60181641 55.63579102 60.89990234 56.0690918 C50.31029368 62.62563674 40.00513006 69.42725938 29.96435547 76.79467773 C29.03623047 77.45854492 28.10810547 78.12241211 27.15185547 78.80639648 C14.94725961 87.5518409 3.33994268 97.00459185 -8.03564453 106.79467773 C-8.75107422 107.40827148 -9.46650391 108.02186523 -10.20361328 108.65405273 C-12.16307994 110.35091046 -14.10199172 112.06846661 -16.03564453 113.79467773 C-16.83228516 114.49850586 -17.62892578 115.20233398 -18.44970703 115.92749023 C-25.46386695 122.23035506 -32.17100711 128.82413603 -38.84814453 135.48217773 C-39.74364014 136.37308105 -40.63913574 137.26398438 -41.56176758 138.18188477 C-46.59407936 143.22592688 -51.41747609 148.37026582 -56.03564453 153.79467773 C-57.0087196 154.91263465 -57.98264656 156.02985077 -58.95751953 157.14624023 C-74.18022805 174.71845992 -88.43104523 193.25019205 -101.03564453 212.79467773 C-101.97535393 214.23894508 -102.91549088 215.6829343 -103.85595703 217.12670898 C-105.77961609 220.08565434 -107.70218624 223.04527975 -109.61767578 226.00952148 C-110.20899292 226.92399048 -110.20899292 226.92399048 -110.81225586 227.85693359 C-112.14669197 229.82681008 -112.14669197 229.82681008 -113.01135254 232.38031006 C-115.03564453 234.79467773 -115.03564453 234.79467773 -116.9211607 235.24831486 C-119.50904313 235.41373898 -122.05484843 235.41222782 -124.64770508 235.36230469 C-126.12602814 235.36339989 -126.12602814 235.36339989 -127.63421631 235.36451721 C-130.89748847 235.3610289 -134.15933996 235.32210765 -137.42236328 235.28295898 C-139.68251261 235.27363532 -141.94267204 235.2665171 -144.20283508 235.26152039 C-150.15597357 235.24241565 -156.10850356 235.19328408 -162.06140137 235.13800049 C-168.13411222 235.08688339 -174.20692125 235.06402242 -180.27978516 235.03881836 C-192.19867252 234.98516939 -204.11710796 234.89981395 -216.03564453 234.79467773 C-214.75212319 230.85004171 -213.36035482 227.23643161 -211.42626953 223.56420898 C-210.91837891 222.59547852 -210.41048828 221.62674805 -209.88720703 220.62866211 C-209.35869141 219.63157227 -208.83017578 218.63448242 -208.28564453 217.60717773 C-207.51607422 216.14054687 -207.51607422 216.14054687 -206.73095703 214.64428711 C-204.11554575 209.67303426 -201.46943377 204.71828041 -198.80126953 199.77514648 C-198.09405762 198.46453247 -198.09405762 198.46453247 -197.37255859 197.12744141 C-196.19566591 195.07389692 -194.95241101 193.18719716 -193.53564453 191.29467773 C-191.45104404 188.5063586 -189.80048403 185.61612315 -188.16064453 182.54467773 C-183.88742457 174.55704351 -179.13819389 166.93505675 -173.49267578 159.84155273 C-171.88008828 157.65468356 -171.88008828 157.65468356 -170.21923828 154.54467773 C-167.91403927 150.44243545 -165.14624179 146.77239779 -162.28564453 143.04467773 C-161.210716 141.62985214 -160.13649856 140.214486 -159.06298828 138.79858398 C-158.54333496 138.11425293 -158.02368164 137.42992187 -157.48828125 136.72485352 C-155.56758473 134.17274818 -153.70604003 131.58024085 -151.84814453 128.98217773 C-147.80486612 123.39343134 -143.43894359 118.10121763 -139.03564453 112.79467773 C-137.53534436 110.94075395 -136.03534339 109.08658798 -134.53564453 107.23217773 C-130.86001868 102.73690012 -127.04319842 98.39934667 -123.13330078 94.10717773 C-121.34057007 92.13083401 -119.58769226 90.13011043 -117.84814453 88.10717773 C-106.99128903 75.66335727 -95.61236064 63.27043286 -83.05517578 52.52905273 C-80.72446319 50.52743496 -78.44192345 48.47744099 -76.16064453 46.41967773 C-75.31244141 45.65655273 -74.46423828 44.89342773 -73.59033203 44.10717773 C-71.94226935 42.61535341 -70.30108554 41.11587735 -68.66845703 39.60717773 C-62.38578367 33.8394776 -55.80033119 28.57144104 -49.05712891 23.36157227 C-46.8607871 21.65914211 -44.67426868 19.94459598 -42.48876953 18.22827148 C-40.92115071 17.00029262 -39.35344343 15.77242668 -37.78564453 14.54467773 C-36.70573242 13.69546753 -36.70573242 13.69546753 -35.60400391 12.82910156 C-34.20400624 11.73658746 -32.79230996 10.65885368 -31.36784172 9.59844303 C-29.04114954 7.85828858 -29.04114954 7.85828858 -27.08554268 5.96330166 C-18.89398541 -1.04882993 -10.19694934 -0.14714343 0 0 Z " fill="#85D270" transform="translate(420.03564453125,265.205322265625)"/>
<path d="M0 0 C3.03986089 1.45512953 4.07096784 3.96289819 5.73608398 6.82836914 C6.08340576 7.41884033 6.43072754 8.00931152 6.78857422 8.61767578 C7.49268571 9.81539454 8.19220006 11.01582839 8.88696289 12.21899414 C10.18715428 14.45050057 11.56010543 16.63510606 12.92358398 18.82836914 C15.50166336 23.14129549 17.76163716 27.5783514 19.97460938 32.08813477 C22.09374433 36.39637341 24.30494862 40.64741686 26.56103516 44.88549805 C37.60628144 65.64018993 47.45026015 87.23768985 54.99926758 109.52172852 C56.1885127 113.03039833 57.47451647 116.4121656 59.04858398 119.76586914 C60.88939818 123.70612432 62.00526804 127.70721244 63.05249023 131.92211914 C63.7079805 134.32875007 64.43709262 136.65560904 65.23608398 139.01586914 C69.90912465 152.8580801 73.83593682 166.98252158 77.03686523 181.23461914 C77.9160257 185.13459161 78.89146585 189.01239662 79.86108398 192.89086914 C49.17108398 193.22086914 18.48108398 193.55086914 -13.13891602 193.89086914 C-17.13891602 180.89086914 -17.13891602 180.89086914 -18.37158203 176.87988281 C-19.47899846 173.27859531 -20.59009388 169.67845317 -21.70141602 166.07836914 C-22.08749023 164.82088867 -22.47356445 163.5634082 -22.87133789 162.26782227 C-24.78977664 156.06149316 -26.76042433 149.93593649 -29.13891602 143.89086914 C-29.42516846 143.16295166 -29.7114209 142.43503418 -30.00634766 141.68505859 C-32.0150641 136.60021479 -34.06149771 131.53037214 -36.10571289 126.4597168 C-37.05509613 124.09927009 -37.99615217 121.73567523 -38.93579102 119.37133789 C-42.51218273 110.44107859 -46.48066958 101.80781612 -50.90698242 93.26782227 C-52.36030001 90.46372 -53.80159307 87.6535261 -55.24438477 84.84399414 C-56.33341175 82.73419735 -57.42325322 80.62482076 -58.51391602 78.51586914 C-59.03816162 77.49799316 -59.56240723 76.48011719 -60.10253906 75.43139648 C-60.59665283 74.48216309 -61.0907666 73.53292969 -61.59985352 72.55493164 C-62.04119629 71.70366699 -62.48253906 70.85240234 -62.93725586 69.9753418 C-64.09079799 67.76602148 -64.09079799 67.76602148 -66.13891602 65.89086914 C-66.13891602 63.57836914 -66.13891602 63.57836914 -65.13891602 60.89086914 C-63.70653287 59.62125681 -62.26389599 58.35827097 -60.74047852 57.19946289 C-58.69277833 55.52634201 -57.16226877 53.51256524 -55.51391602 51.45727539 C-54.03854587 49.77652701 -52.47406692 48.39446613 -50.76391602 46.95336914 C-45.7524605 42.69745749 -41.19485135 37.99897735 -36.59448242 33.30908203 C-33.81652544 30.49376157 -31.05284466 27.74907128 -27.99047852 25.24243164 C-24.44390986 22.31772708 -21.30737695 19.10838218 -18.12670898 15.79418945 C-15.7856968 13.35913446 -13.43141492 10.93739344 -11.07641602 8.51586914 C-10.27397461 7.6715332 -9.4715332 6.82719727 -8.64477539 5.95727539 C-7.86811523 5.16450195 -7.09145508 4.37172852 -6.29125977 3.55493164 C-5.5899292 2.82741699 -4.88859863 2.09990234 -4.16601562 1.3503418 C-2.13891602 -0.10913086 -2.13891602 -0.10913086 0 0 Z " fill="#66C566" transform="translate(1279.138916015625,443.109130859375)"/>
<path d="M0 0 C1.21002686 -0.00073013 2.42005371 -0.00146027 3.66674805 -0.00221252 C6.98106677 0.00067337 10.29382641 0.0257372 13.60786915 0.06065726 C17.07249669 0.09192401 20.53714523 0.09485171 24.00189209 0.1007843 C30.56099618 0.11632197 37.11968335 0.15734884 43.67860389 0.20753175 C51.14645205 0.26342806 58.61432017 0.29091234 66.08232546 0.31600893 C81.44282037 0.36826521 96.80289938 0.45620537 112.16308594 0.56762695 C111.21428051 1.68850251 110.26347857 2.80768824 109.31184387 3.92616272 C108.78258206 4.54959092 108.25332026 5.17301912 107.70802021 5.81533909 C105.77958843 8.00259563 103.69313302 9.90863382 101.48730469 11.8137207 C96.26509767 16.42776207 91.30948937 21.2687518 86.39379883 26.20654297 C84.96971102 27.63602412 83.5403055 29.06003206 82.11035156 30.48364258 C76.91778474 35.68344643 71.92030448 40.96800793 67.16308594 46.56762695 C66.19012896 47.68568664 65.2162029 48.8029039 64.24121094 49.91918945 C49.01850242 67.49140914 34.76768524 86.02314127 22.16308594 105.56762695 C21.22337654 107.0118943 20.28323959 108.45588352 19.34277344 109.8996582 C17.41911438 112.85860356 15.49654423 115.81822897 13.58105469 118.7824707 C12.98973755 119.6969397 12.98973755 119.6969397 12.38647461 120.62988281 C11.05203849 122.5997593 11.05203849 122.5997593 10.18737793 125.15325928 C8.16308594 127.56762695 8.16308594 127.56762695 6.27756977 128.02126408 C3.68968734 128.1866882 1.14388204 128.18517704 -1.44897461 128.13525391 C-2.92729767 128.13634911 -2.92729767 128.13634911 -4.43548584 128.13746643 C-7.698758 128.13397811 -10.96060949 128.09505687 -14.22363281 128.0559082 C-16.48378215 128.04658454 -18.74394157 128.03946632 -21.00410461 128.0344696 C-26.9572431 128.01536487 -32.90977309 127.9662333 -38.8626709 127.91094971 C-44.93538175 127.85983261 -51.00819078 127.83697164 -57.08105469 127.81176758 C-68.99994205 127.7581186 -80.91837749 127.67276316 -92.83691406 127.56762695 C-91.55339272 123.62299093 -90.16162435 120.00938083 -88.22753906 116.3371582 C-87.71964844 115.36842773 -87.21175781 114.39969727 -86.68847656 113.40161133 C-86.15996094 112.40452148 -85.63144531 111.40743164 -85.08691406 110.38012695 C-84.31734375 108.91349609 -84.31734375 108.91349609 -83.53222656 107.41723633 C-80.91681528 102.44598348 -78.2707033 97.49122963 -75.60253906 92.5480957 C-75.13106445 91.67435303 -74.65958984 90.80061035 -74.17382812 89.90039062 C-72.99693544 87.84684614 -71.75368054 85.96014637 -70.33691406 84.06762695 C-68.25231357 81.27930782 -66.60175356 78.38907237 -64.96191406 75.31762695 C-60.6886941 67.32999272 -55.93946342 59.70800597 -50.29394531 52.61450195 C-48.68135781 50.42763278 -48.68135781 50.42763278 -47.02050781 47.31762695 C-44.7153088 43.21538467 -41.94751132 39.54534701 -39.08691406 35.81762695 C-38.01198553 34.40280136 -36.93776809 32.98743522 -35.86425781 31.5715332 C-35.34460449 30.88720215 -34.82495117 30.20287109 -34.28955078 29.49780273 C-32.36885426 26.9456974 -30.50730956 24.35319007 -28.64941406 21.75512695 C-25.2464655 17.04499147 -21.62523713 12.54636159 -17.91503906 8.07543945 C-15.77570675 5.66642732 -15.77570675 5.66642732 -14.44683838 2.94636536 C-10.19832805 -0.92581385 -5.54335706 -0.08702173 0 0 Z " fill="#79CC6C" transform="translate(296.8369140625,372.432373046875)"/>
<path d="M0 0 C29.37 0 58.74 0 89 0 C89 15 89 15 88 22 C87.91453133 23.96739207 87.86948649 25.93700365 87.8671875 27.90625 C87.86589844 28.98003906 87.86460937 30.05382812 87.86328125 31.16015625 C87.86714844 32.26230469 87.87101562 33.36445312 87.875 34.5 C87.87113281 35.60214844 87.86726563 36.70429687 87.86328125 37.83984375 C87.86457031 38.91363281 87.86585938 39.98742187 87.8671875 41.09375 C87.86887939 42.54297852 87.86887939 42.54297852 87.87060547 44.02148438 C88.01728703 47.39792788 88.51960104 50.6549834 89 54 C89.24719349 56.90058595 89.4110966 59.80477104 89.578125 62.7109375 C89.68808988 64.45186805 89.79879564 66.19275192 89.91015625 67.93359375 C90.07910346 70.60563986 90.24447854 73.27758969 90.39599609 75.95068359 C91.42758997 93.92646401 94.27964374 111.04564868 97 129 C66.97 129 36.94 129 6 129 C2.56741573 109.54868914 2.56741573 109.54868914 1.875 100.1875 C1.72939758 98.32659892 1.58107231 96.46590836 1.4296875 94.60546875 C1.34050049 93.41667114 1.34050049 93.41667114 1.24951172 92.20385742 C1.05838328 90.0308619 1.05838328 90.0308619 0.49192142 88.09637833 C-0.31493911 84.65785168 -0.12950154 81.16480118 -0.11352539 77.65136719 C-0.11364593 76.79843708 -0.11376646 75.94550697 -0.11389065 75.0667305 C-0.11314519 72.31008533 -0.10553365 69.55350805 -0.09765625 66.796875 C-0.09618569 65.09326205 -0.09516568 63.38964865 -0.09460449 61.68603516 C-0.08936477 55.37401654 -0.07540355 49.0620076 -0.0625 42.75 C-0.041875 28.6425 -0.02125 14.535 0 0 Z " fill="#30B35E" transform="translate(143,734)"/>
<path d="M0 0 C30.36 0 60.72 0 92 0 C91.34 3.96 90.68 7.92 90 12 C89.49844417 15.55617017 89.02576003 19.11446978 88.5625 22.67578125 C87.96198246 26.22467311 86.99541143 29.54130594 86 33 C85.42170793 35.56974565 84.88657265 38.14674218 84.3515625 40.72583008 C81.98085596 52.15121166 79.04901468 63.30975106 75.73193359 74.4921875 C74.32962784 79.29688553 73.02989866 84.13107054 71.73632812 88.96606445 C70.42556779 93.76780887 68.80202812 98.35916046 67 103 C66.443125 104.4540625 66.443125 104.4540625 65.875 105.9375 C65 108 65 108 64 109 C61.01701786 109.0952822 58.05723655 109.12552175 55.07397461 109.11352539 C54.13748581 109.11367142 53.20099701 109.11381744 52.23612976 109.1139679 C49.12484461 109.11326837 46.01361851 109.10547415 42.90234375 109.09765625 C40.75142957 109.09579221 38.60051497 109.09436824 36.44960022 109.09336853 C30.77618242 109.08954225 25.10279005 109.07971102 19.42938232 109.06866455 C13.64498234 109.0584528 7.86057827 109.05387142 2.07617188 109.04882812 C-9.28256328 109.03808885 -20.64127953 109.02101111 -32 109 C-31.5291572 107.57556945 -31.05727381 106.15148284 -30.58496094 104.72753906 C-30.32229431 103.9344635 -30.05962769 103.14138794 -29.78900146 102.32427979 C-28.69426459 99.09934942 -27.47432612 95.92774533 -26.25 92.75 C-22.81145734 83.70056995 -19.7540502 74.53064032 -16.7578125 65.32666016 C-16.12584233 63.38636516 -15.48579626 61.4487029 -14.84375 59.51171875 C-11.8677744 50.25979461 -9.75014561 40.80425525 -7.55078125 31.34521484 C-6.87609197 28.47240224 -6.16341617 25.61026753 -5.4375 22.75 C-3.54646697 15.18586788 -1.78580341 7.58966448 0 0 Z " fill="#01A85B" transform="translate(1274,863)"/>
<path d="M0 0 C30.03 0 60.06 0 91 0 C91.99 5.28 92.98 10.56 94 16 C94.6885192 18.84796577 95.37727137 21.69620294 96.1171875 24.53125 C96.84221266 27.38002144 97.5286686 30.23104128 98.1953125 33.09375 C98.41010254 34.01325439 98.62489258 34.93275879 98.84619141 35.88012695 C99.27082864 37.70346659 99.69254725 39.52748931 100.11083984 41.35229492 C101.24252779 46.18673858 102.55081778 50.87977015 104.16992188 55.57299805 C105.13396497 58.39168994 106.03750524 61.22662336 106.9375 64.06640625 C107.44410156 65.6606543 107.44410156 65.6606543 107.9609375 67.28710938 C108.65477181 69.4742525 109.34747668 71.66175423 110.0390625 73.84960938 C111.87934231 79.63384765 113.80761694 85.3398864 116 91 C116.65162109 92.70736328 116.65162109 92.70736328 117.31640625 94.44921875 C117.72761719 95.51785156 118.13882813 96.58648438 118.5625 97.6875 C118.97628906 98.76386719 119.39007813 99.84023438 119.81640625 100.94921875 C120.86019065 103.63963332 121.92824241 106.32060602 123 109 C75.975 109.495 75.975 109.495 28 110 C25.75640819 104.76495245 23.78076752 99.69277691 22 94.3125 C21.73582275 93.517229 21.47164551 92.72195801 21.19946289 91.90258789 C19.48697482 86.67295761 18.02171136 81.43833461 16.76953125 76.078125 C16.02839949 73.11359796 15.1653614 70.20298533 14.26733398 67.28271484 C11.06669845 56.84263346 8.76360259 46.26137946 6.5390625 35.57617188 C6.07873279 33.37626287 5.60725742 31.1795562 5.125 28.984375 C3.76446041 22.7769131 2.50092651 16.55488873 1.3125 10.3125 C1.18085449 9.62808838 1.04920898 8.94367676 0.91357422 8.23852539 C0.38943554 5.43900406 0 2.85595859 0 0 Z " fill="#01A85B" transform="translate(149,863)"/>
<path d="M0 0 C30.36 0 60.72 0 92 0 C92.99 5.445 92.99 5.445 94 11 C94.495 11.495 94.495 11.495 95 12 C95.50917157 14.56119433 95.96038511 17.11047977 96.375 19.6875 C96.50511475 20.48115967 96.63522949 21.27481934 96.76928711 22.0925293 C98.09922125 30.35249864 99.2061343 38.64132806 100.3125 46.93359375 C100.8471933 50.9224939 101.43200664 54.89993639 102.0625 58.875 C104.10530963 72.09317994 105 84.47457457 105 98 C74.97 98 44.94 98 14 98 C13.34 91.07 12.68 84.14 12 77 C11.38672322 71.94977746 10.75564398 66.91345154 10.0625 61.875 C9.88920166 60.60019775 9.71590332 59.32539551 9.53735352 58.01196289 C7.13540432 40.50508653 4.64979529 23.27996995 -0.546875 6.33984375 C-1 4 -1 4 0 0 Z " fill="#45B95F" transform="translate(1267,636)"/>
<path d="M0 0 C30.03 0 60.06 0 91 0 C89.79880452 6.00597738 88.57512767 11.8555996 87.1015625 17.77734375 C84.65197925 27.94917544 82.99368155 38.2312811 81.375 48.5625 C81.22214539 49.52413055 81.06929077 50.48576111 80.9118042 51.47653198 C78.71582201 65.337967 76.85825566 79.12233623 76.18603516 93.15454102 C76 95 76 95 75 98 C45.63 98 16.26 98 -14 98 C-14 87.36995615 -13.87359484 77.97473026 -12.37255859 67.64697266 C-11.9151086 64.39685938 -11.4985891 61.14232427 -11.08203125 57.88671875 C-7.96668778 33.68557856 -7.96668778 33.68557856 -5.61328125 22.12890625 C-5.17045905 19.86966689 -4.80045465 17.59573682 -4.4765625 15.31640625 C-3.69579555 9.88303625 -2.03617741 5.09044353 0 0 Z " fill="#45B95F" transform="translate(157,636)"/>
<path d="M0 0 C0.8010381 0.00368717 1.60207621 0.00737434 2.42738819 0.01117325 C3.80928837 0.00292526 3.80928837 0.00292526 5.21910572 -0.00548935 C6.73177273 0.01608231 6.73177273 0.01608231 8.27499866 0.03808975 C9.33857594 0.03750565 10.40215321 0.03692154 11.49796009 0.03631973 C15.02073031 0.03911106 18.54265909 0.07025377 22.06528187 0.10156631 C24.50479641 0.10902494 26.94431694 0.11471966 29.38383961 0.11871719 C35.81033282 0.13400315 42.23646547 0.17331099 48.66281605 0.21753311 C55.21814566 0.25842169 61.77353342 0.27671452 68.32895374 0.29687881 C81.1956442 0.33980194 94.0620845 0.40732254 106.92856312 0.49219131 C105.1939541 4.12019799 103.05475728 7.01879707 100.55356312 10.17969131 C81.29145618 33.78143216 81.29145618 33.78143216 66.93387318 60.10728836 C64.92856312 62.49219131 64.92856312 62.49219131 63.04423332 62.94398689 C60.45574975 63.11142734 57.91008509 63.10975538 55.31650257 63.05981827 C53.83817951 63.06091347 53.83817951 63.06091347 52.32999134 63.06203079 C49.06671918 63.05854248 45.80486769 63.01962123 42.54184437 62.98047256 C40.28169503 62.9711489 38.02153561 62.96403068 35.76137257 62.95903397 C29.80823408 62.93992923 23.85570409 62.89079766 17.90280628 62.83551407 C11.83009543 62.78439697 5.7572864 62.761536 -0.31557751 62.73633194 C-12.23446487 62.68268297 -24.15290031 62.59732753 -36.07143688 62.49219131 C-34.78791554 58.54755529 -33.39614717 54.93394519 -31.46206188 51.26172256 C-30.95417126 50.2929921 -30.44628063 49.32426163 -29.92299938 48.32617569 C-29.39448376 47.32908585 -28.86596813 46.331996 -28.32143688 45.30469131 C-27.55186657 43.83806046 -27.55186657 43.83806046 -26.76674938 42.34180069 C-24.1513381 37.37054785 -21.50522612 32.41579399 -18.83706188 27.47266006 C-18.36558727 26.59891739 -17.89411266 25.72517471 -17.40835094 24.82495499 C-15.89687338 22.18759777 -14.18176998 19.8053125 -12.36049938 17.37891006 C-10.11912133 14.09834764 -8.34144063 10.55946875 -6.50112438 7.04297256 C-2.94594075 0.69998099 -2.94594075 0.69998099 0 0 Z " fill="#6FC868" transform="translate(240.07143688201904,437.50780868530273)"/>
<path d="M0 0 C32.01 0 64.02 0 97 0 C97.99 3.3 98.98 6.6 100 10 C100.7391514 12.21157235 101.47834755 14.42313504 102.22314453 16.6328125 C106.50468487 29.67926602 110.16735294 42.94875697 113.17578125 56.34375 C114.05494171 60.24372247 115.03038187 64.12152748 116 68 C69.965 68.495 69.965 68.495 23 69 C19 56 19 56 17.76733398 51.98901367 C16.65991756 48.38772617 15.54882214 44.78758403 14.4375 41.1875 C14.05142578 39.93001953 13.66535156 38.67253906 13.26757812 37.37695312 C11.34906836 31.17039427 9.37299657 25.04731383 7 19 C6.70746338 18.24887939 6.41492676 17.49775879 6.11352539 16.72387695 C4.86247158 13.51204628 3.60396391 10.30318192 2.34179688 7.09570312 C2.03951172 6.32291016 1.73722656 5.55011719 1.42578125 4.75390625 C1.01453003 3.70698608 1.01453003 3.70698608 0.5949707 2.63891602 C0 1 0 1 0 0 Z " fill="#56BF62" transform="translate(1243,568)"/>
<path d="M0 0 C31.68 0 63.36 0 96 0 C92.535 8.91 92.535 8.91 89 18 C87.31824787 22.83560098 85.64731326 27.66197846 84.046875 32.52319336 C83.37291047 34.56884224 82.69087998 36.61167177 82.0078125 38.65429688 C78.78032965 48.3877545 75.89707375 58.14994925 73 68 C27.46 68.495 27.46 68.495 -19 69 C-15.45601852 52.46141975 -15.45601852 52.46141975 -13.5625 44.9375 C-13.34932129 44.08679932 -13.13614258 43.23609863 -12.91650391 42.35961914 C-11.42253153 36.47675478 -9.74847285 30.67368001 -7.90234375 24.890625 C-7.00189424 22.00606811 -6.20784535 19.10922434 -5.4375 16.1875 C-4.22723812 11.65728477 -2.71412847 7.36323612 -1 3 C-0.67 2.01 -0.34 1.02 0 0 Z " fill="#56BF62" transform="translate(175,568)"/>
<path d="M0 0 C30.36 0 60.72 0 92 0 C89.67164179 19.79104478 89.67164179 19.79104478 88.4375 28.75 C88.31181641 29.68070313 88.18613281 30.61140625 88.05664062 31.5703125 C87.48373941 35.7575905 86.83006567 39.84967163 86 44 C55.64 44 25.28 44 -6 44 C-4.36534813 29.28813321 -2.0933758 14.65363057 0 0 Z " fill="#1CAF5D" transform="translate(1280,819)"/>
<path d="M0 0 C30.03 0 60.06 0 91 0 C91.99 8.91 91.99 8.91 93 18 C94.32 26.58 95.64 35.16 97 44 C66.97 44 36.94 44 6 44 C2.56549118 24.53778338 2.56549118 24.53778338 1.875 15.25 C1.7290142 13.40084648 1.58066017 11.55187806 1.4296875 9.703125 C1.34050049 8.52218262 1.34050049 8.52218262 1.24951172 7.31738281 C0.98462144 4.85716898 0.48527625 2.42638124 0 0 Z " fill="#1CAF5D" transform="translate(143,819)"/>
<path d="M0 0 C16.83 0 33.66 0 51 0 C51 16.83 51 33.66 51 51 C34.17 51 17.34 51 0 51 C0 34.17 0 17.34 0 0 Z " fill="#007D42" transform="translate(1105,1012)"/>
<path d="M0 0 C16.83 0 33.66 0 51 0 C51 16.83 51 33.66 51 51 C34.17 51 17.34 51 0 51 C0 34.17 0 17.34 0 0 Z " fill="#006D3E" transform="translate(1039,1012)"/>
<path d="M0 0 C16.83 0 33.66 0 51 0 C51 16.83 51 33.66 51 51 C34.17 51 17.34 51 0 51 C0 34.17 0 17.34 0 0 Z " fill="#007145" transform="translate(840,1012)"/>
<path d="M0 0 C16.83 0 33.66 0 51 0 C51 16.83 51 33.66 51 51 C34.17 51 17.34 51 0 51 C0 34.17 0 17.34 0 0 Z " fill="#00A155" transform="translate(773,1012)"/>
<path d="M0 0 C16.83 0 33.66 0 51 0 C51 16.83 51 33.66 51 51 C34.17 51 17.34 51 0 51 C0 34.17 0 17.34 0 0 Z " fill="#008447" transform="translate(610,1012)"/>
<path d="M0 0 C16.83 0 33.66 0 51 0 C51 16.83 51 33.66 51 51 C34.17 51 17.34 51 0 51 C0 34.17 0 17.34 0 0 Z " fill="#008D51" transform="translate(544,1012)"/>
<path d="M0 0 C16.83 0 33.66 0 51 0 C51 16.83 51 33.66 51 51 C34.17 51 17.34 51 0 51 C0 34.17 0 17.34 0 0 Z " fill="#008447" transform="translate(478,1012)"/>
<path d="M0 0 C16.83 0 33.66 0 51 0 C51 16.83 51 33.66 51 51 C34.17 51 17.34 51 0 51 C0 34.17 0 17.34 0 0 Z " fill="#009F5B" transform="translate(411,1012)"/>
<path d="M0 0 C16.83 0 33.66 0 51 0 C51 16.83 51 33.66 51 51 C34.17 51 17.34 51 0 51 C0 34.17 0 17.34 0 0 Z " fill="#00934B" transform="translate(1105,941)"/>
<path d="M0 0 C16.83 0 33.66 0 51 0 C51 16.83 51 33.66 51 51 C34.17 51 17.34 51 0 51 C0 34.17 0 17.34 0 0 Z " fill="#007D42" transform="translate(1039,941)"/>
<path d="M0 0 C16.83 0 33.66 0 51 0 C51 16.83 51 33.66 51 51 C34.17 51 17.34 51 0 51 C0 34.17 0 17.34 0 0 Z " fill="#007C4A" transform="translate(840,941)"/>
<path d="M0 0 C16.83 0 33.66 0 51 0 C51 16.83 51 33.66 51 51 C34.17 51 17.34 51 0 51 C0 34.17 0 17.34 0 0 Z " fill="#56C164" transform="translate(773,941)"/>
<path d="M0 0 C16.83 0 33.66 0 51 0 C51 16.83 51 33.66 51 51 C34.17 51 17.34 51 0 51 C0 34.17 0 17.34 0 0 Z " fill="#00A75E" transform="translate(677,941)"/>
<path d="M0 0 C16.83 0 33.66 0 51 0 C51 16.83 51 33.66 51 51 C34.17 51 17.34 51 0 51 C0 34.17 0 17.34 0 0 Z " fill="#008D51" transform="translate(610,941)"/>
<path d="M0 0 C16.83 0 33.66 0 51 0 C51 16.83 51 33.66 51 51 C34.17 51 17.34 51 0 51 C0 34.17 0 17.34 0 0 Z " fill="#009950" transform="translate(544,941)"/>
<path d="M0 0 C16.83 0 33.66 0 51 0 C51 16.83 51 33.66 51 51 C34.17 51 17.34 51 0 51 C0 34.17 0 17.34 0 0 Z " fill="#34B75C" transform="translate(478,941)"/>
<path d="M0 0 C16.83 0 33.66 0 51 0 C51 16.83 51 33.66 51 51 C34.17 51 17.34 51 0 51 C0 34.17 0 17.34 0 0 Z " fill="#009653" transform="translate(411,941)"/>
<path d="M0 0 C16.83 0 33.66 0 51 0 C51 16.83 51 33.66 51 51 C34.17 51 17.34 51 0 51 C0 34.17 0 17.34 0 0 Z " fill="#00914D" transform="translate(345,941)"/>
<path d="M0 0 C16.83 0 33.66 0 51 0 C51 16.83 51 33.66 51 51 C34.17 51 17.34 51 0 51 C0 34.17 0 17.34 0 0 Z " fill="#4ABD65" transform="translate(1105,871)"/>
<path d="M0 0 C16.83 0 33.66 0 51 0 C51 16.83 51 33.66 51 51 C34.17 51 17.34 51 0 51 C0 34.17 0 17.34 0 0 Z " fill="#008D4E" transform="translate(1039,871)"/>
<path d="M0 0 C16.83 0 33.66 0 51 0 C51 16.83 51 33.66 51 51 C34.17 51 17.34 51 0 51 C0 34.17 0 17.34 0 0 Z " fill="#00894A" transform="translate(972,871)"/>
<path d="M0 0 C16.83 0 33.66 0 51 0 C51 16.83 51 33.66 51 51 C34.17 51 17.34 51 0 51 C0 34.17 0 17.34 0 0 Z " fill="#00934B" transform="translate(906,871)"/>
<path d="M0 0 C16.83 0 33.66 0 51 0 C51 16.83 51 33.66 51 51 C34.17 51 17.34 51 0 51 C0 34.17 0 17.34 0 0 Z " fill="#009250" transform="translate(840,871)"/>
<path d="M0 0 C16.83 0 33.66 0 51 0 C51 16.83 51 33.66 51 51 C34.17 51 17.34 51 0 51 C0 34.17 0 17.34 0 0 Z " fill="#92CC95" transform="translate(773,871)"/>
<path d="M0 0 C16.83 0 33.66 0 51 0 C51 16.83 51 33.66 51 51 C34.17 51 17.34 51 0 51 C0 34.17 0 17.34 0 0 Z " fill="#4ABD65" transform="translate(677,871)"/>
<path d="M0 0 C16.83 0 33.66 0 51 0 C51 16.83 51 33.66 51 51 C34.17 51 17.34 51 0 51 C0 34.17 0 17.34 0 0 Z " fill="#1CB45A" transform="translate(610,871)"/>
<path d="M0 0 C16.83 0 33.66 0 51 0 C51 16.83 51 33.66 51 51 C34.17 51 17.34 51 0 51 C0 34.17 0 17.34 0 0 Z " fill="#ACD9AA" transform="translate(478,871)"/>
<path d="M0 0 C16.83 0 33.66 0 51 0 C51 16.83 51 33.66 51 51 C34.17 51 17.34 51 0 51 C0 34.17 0 17.34 0 0 Z " fill="#16AA5C" transform="translate(411,871)"/>
<path d="M0 0 C16.83 0 33.66 0 51 0 C51 16.83 51 33.66 51 51 C34.17 51 17.34 51 0 51 C0 34.17 0 17.34 0 0 Z " fill="#009552" transform="translate(345,871)"/>
<path d="M0 0 C16.83 0 33.66 0 51 0 C51 16.83 51 33.66 51 51 C34.17 51 17.34 51 0 51 C0 34.17 0 17.34 0 0 Z " fill="#55BE65" transform="translate(907,803)"/>
<path d="M0 0 C16.83 0 33.66 0 51 0 C51 16.83 51 33.66 51 51 C34.17 51 17.34 51 0 51 C0 34.17 0 17.34 0 0 Z " fill="#55BE65" transform="translate(839,801)"/>
<path d="M0 0 C16.83 0 33.66 0 51 0 C51 16.83 51 33.66 51 51 C34.17 51 17.34 51 0 51 C0 34.17 0 17.34 0 0 Z " fill="#55BE65" transform="translate(773,801)"/>
<path d="M0 0 C16.83 0 33.66 0 51 0 C51 16.83 51 33.66 51 51 C34.17 51 17.34 51 0 51 C0 34.17 0 17.34 0 0 Z " fill="#5FCA60" transform="translate(1105,800)"/>
<path d="M0 0 C16.83 0 33.66 0 51 0 C51 16.83 51 33.66 51 51 C34.17 51 17.34 51 0 51 C0 34.17 0 17.34 0 0 Z " fill="#009A52" transform="translate(1039,800)"/>
<path d="M0 0 C16.83 0 33.66 0 51 0 C51 16.83 51 33.66 51 51 C34.17 51 17.34 51 0 51 C0 34.17 0 17.34 0 0 Z " fill="#21B65C" transform="translate(972,800)"/>
<path d="M0 0 C16.83 0 33.66 0 51 0 C51 16.83 51 33.66 51 51 C34.17 51 17.34 51 0 51 C0 34.17 0 17.34 0 0 Z " fill="#34B75C" transform="translate(411,800)"/>
<path d="M0 0 C16.83 0 33.66 0 51 0 C51 16.83 51 33.66 51 51 C34.17 51 17.34 51 0 51 C0 34.17 0 17.34 0 0 Z " fill="#008A49" transform="translate(345,800)"/>
<path d="M0 0 C16.83 0 33.66 0 51 0 C51 16.83 51 33.66 51 51 C34.17 51 17.34 51 0 51 C0 34.17 0 17.34 0 0 Z " fill="#55BE65" transform="translate(840,731)"/>
<path d="M0 0 C16.83 0 33.66 0 51 0 C51 16.83 51 33.66 51 51 C34.17 51 17.34 51 0 51 C0 34.17 0 17.34 0 0 Z " fill="#55BE65" transform="translate(773,731)"/>
<path d="M0 0 C16.83 0 33.66 0 51 0 C51 16.83 51 33.66 51 51 C34.17 51 17.34 51 0 51 C0 34.17 0 17.34 0 0 Z " fill="#2DB762" transform="translate(1105,730)"/>
<path d="M0 0 C16.83 0 33.66 0 51 0 C51 16.83 51 33.66 51 51 C34.17 51 17.34 51 0 51 C0 34.17 0 17.34 0 0 Z " fill="#00A056" transform="translate(1039,730)"/>
<path d="M0 0 C16.83 0 33.66 0 51 0 C51 16.83 51 33.66 51 51 C34.17 51 17.34 51 0 51 C0 34.17 0 17.34 0 0 Z " fill="#85CE72" transform="translate(411,730)"/>
<path d="M0 0 C16.83 0 33.66 0 51 0 C51 16.83 51 33.66 51 51 C34.17 51 17.34 51 0 51 C0 34.17 0 17.34 0 0 Z " fill="#008D4C" transform="translate(345,730)"/>
<path d="M0 0 C16.83 0 33.66 0 51 0 C51 16.83 51 33.66 51 51 C34.17 51 17.34 51 0 51 C0 34.17 0 17.34 0 0 Z " fill="#55BE65" transform="translate(840,661)"/>
<path d="M0 0 C16.83 0 33.66 0 51 0 C51 16.83 51 33.66 51 51 C34.17 51 17.34 51 0 51 C0 34.17 0 17.34 0 0 Z " fill="#55BE65" transform="translate(1039,660)"/>
<path d="M0 0 C16.83 0 33.66 0 51 0 C51 16.83 51 33.66 51 51 C34.17 51 17.34 51 0 51 C0 34.17 0 17.34 0 0 Z " fill="#00A151" transform="translate(411,660)"/>
<path d="M0 0 C16.83 0 33.66 0 51 0 C51 16.83 51 33.66 51 51 C34.17 51 17.34 51 0 51 C0 34.17 0 17.34 0 0 Z " fill="#78CC69" transform="translate(345,660)"/>
<path d="M0 0 C16.83 0 33.66 0 51 0 C51 16.83 51 33.66 51 51 C34.17 51 17.34 51 0 51 C0 34.17 0 17.34 0 0 Z " fill="#85D16D" transform="translate(1039,589)"/>
<path d="M0 0 C16.83 0 33.66 0 51 0 C51 16.83 51 33.66 51 51 C34.17 51 17.34 51 0 51 C0 34.17 0 17.34 0 0 Z " fill="#9BD892" transform="translate(840,589)"/>
<path d="M0 0 C16.83 0 33.66 0 51 0 C51 16.83 51 33.66 51 51 C34.17 51 17.34 51 0 51 C0 34.17 0 17.34 0 0 Z " fill="#48BA60" transform="translate(677,589)"/>
<path d="M0 0 C16.83 0 33.66 0 51 0 C51 16.83 51 33.66 51 51 C34.17 51 17.34 51 0 51 C0 34.17 0 17.34 0 0 Z " fill="#80D26F" transform="translate(610,589)"/>
<path d="M0 0 C16.83 0 33.66 0 51 0 C51 16.83 51 33.66 51 51 C34.17 51 17.34 51 0 51 C0 34.17 0 17.34 0 0 Z " fill="#AFDDB4" transform="translate(478,589)"/>
<path d="M0 0 C16.83 0 33.66 0 51 0 C51 16.83 51 33.66 51 51 C34.17 51 17.34 51 0 51 C0 34.17 0 17.34 0 0 Z " fill="#5BC35F" transform="translate(411,589)"/>
<path d="M0 0 C16.83 0 33.66 0 51 0 C51 16.83 51 33.66 51 51 C34.17 51 17.34 51 0 51 C0 34.17 0 17.34 0 0 Z " fill="#48BA60" transform="translate(345,589)"/>
<path d="M0 0 C16.83 0 33.66 0 51 0 C51 16.83 51 33.66 51 51 C34.17 51 17.34 51 0 51 C0 34.17 0 17.34 0 0 Z " fill="#21B65C" transform="translate(973,520)"/>
<path d="M0 0 C16.83 0 33.66 0 51 0 C51 16.83 51 33.66 51 51 C34.17 51 17.34 51 0 51 C0 34.17 0 17.34 0 0 Z " fill="#85D16D" transform="translate(1039,519)"/>
<path d="M0 0 C16.83 0 33.66 0 51 0 C51 16.83 51 33.66 51 51 C34.17 51 17.34 51 0 51 C0 34.17 0 17.34 0 0 Z " fill="#9BD892" transform="translate(840,519)"/>
<path d="M0 0 C16.83 0 33.66 0 51 0 C51 16.83 51 33.66 51 51 C34.17 51 17.34 51 0 51 C0 34.17 0 17.34 0 0 Z " fill="#7DD468" transform="translate(677,519)"/>
<path d="M0 0 C16.83 0 33.66 0 51 0 C51 16.83 51 33.66 51 51 C34.17 51 17.34 51 0 51 C0 34.17 0 17.34 0 0 Z " fill="#00AC56" transform="translate(610,519)"/>
<path d="M0 0 C16.83 0 33.66 0 51 0 C51 16.83 51 33.66 51 51 C34.17 51 17.34 51 0 51 C0 34.17 0 17.34 0 0 Z " fill="#68CC61" transform="translate(544,519)"/>
<path d="M0 0 C16.83 0 33.66 0 51 0 C51 16.83 51 33.66 51 51 C34.17 51 17.34 51 0 51 C0 34.17 0 17.34 0 0 Z " fill="#7DCF71" transform="translate(478,519)"/>
<path d="M0 0 C16.83 0 33.66 0 51 0 C51 16.83 51 33.66 51 51 C34.17 51 17.34 51 0 51 C0 34.17 0 17.34 0 0 Z " fill="#61CD63" transform="translate(411,519)"/>
<path d="M0 0 C16.83 0 33.66 0 51 0 C51 16.83 51 33.66 51 51 C34.17 51 17.34 51 0 51 C0 34.17 0 17.34 0 0 Z " fill="#67CF63" transform="translate(345,519)"/>
<path d="M0 0 C16.83 0 33.66 0 51 0 C51 16.83 51 33.66 51 51 C34.17 51 17.34 51 0 51 C0 34.17 0 17.34 0 0 Z " fill="#21B65C" transform="translate(905,518)"/>
<path d="M0 0 C16.83 0 33.66 0 51 0 C51 16.83 51 33.66 51 51 C34.17 51 17.34 51 0 51 C0 34.17 0 17.34 0 0 Z " fill="#85D16D" transform="translate(1039,450)"/>
<path d="M0 0 C16.83 0 33.66 0 51 0 C51 16.83 51 33.66 51 51 C34.17 51 17.34 51 0 51 C0 34.17 0 17.34 0 0 Z " fill="#85D16D" transform="translate(972,450)"/>
<path d="M0 0 C16.83 0 33.66 0 51 0 C51 16.83 51 33.66 51 51 C34.17 51 17.34 51 0 51 C0 34.17 0 17.34 0 0 Z " fill="#85D16D" transform="translate(906,450)"/>
<path d="M0 0 C16.83 0 33.66 0 51 0 C51 16.83 51 33.66 51 51 C34.17 51 17.34 51 0 51 C0 34.17 0 17.34 0 0 Z " fill="#A6DC99" transform="translate(840,450)"/>
<path d="M0 0 C16.83 0 33.66 0 51 0 C51 16.83 51 33.66 51 51 C34.17 51 17.34 51 0 51 C0 34.17 0 17.34 0 0 Z " fill="#8BD574" transform="translate(610,448)"/>
<path d="M0 0 C16.83 0 33.66 0 51 0 C51 16.83 51 33.66 51 51 C34.17 51 17.34 51 0 51 C0 34.17 0 17.34 0 0 Z " fill="#74CE69" transform="translate(544,448)"/>
<path d="M0 0 C16.83 0 33.66 0 51 0 C51 16.83 51 33.66 51 51 C34.17 51 17.34 51 0 51 C0 34.17 0 17.34 0 0 Z " fill="#6BCD65" transform="translate(478,448)"/>
<path d="M0 0 C16.83 0 33.66 0 51 0 C51 16.83 51 33.66 51 51 C34.17 51 17.34 51 0 51 C0 34.17 0 17.34 0 0 Z " fill="#7CD06B" transform="translate(411,448)"/>
<path d="M0 0 C0 17.49 0 34.98 0 53 C-17.49 53 -34.98 53 -53 53 C-53 48.71 -53 44.42 -53 40 C-50.87767021 38.82823482 -48.75242209 37.66245215 -46.625 36.5 C-46.02171875 36.16613281 -45.4184375 35.83226562 -44.796875 35.48828125 C-40.2265625 33 -40.2265625 33 -38 33 C-38 32.34 -38 31.68 -38 31 C-35.734375 29.34375 -35.734375 29.34375 -32.75 27.5 C-31.77546875 26.8915625 -30.8009375 26.283125 -29.796875 25.65625 C-27.56209634 24.33286152 -25.34283528 23.11563585 -23 22 C-23 21.34 -23 20.68 -23 20 C-21.63671875 18.6953125 -21.63671875 18.6953125 -19.6875 17.125 C-15.28913427 13.41117419 -11.49641918 9.29540502 -7.68237305 5.00048828 C-3.21301641 0 -3.21301641 0 0 0 Z " fill="#74CE69" transform="translate(824,661)"/>
<path d="M0 0 C4.65818461 1.86327384 5.84934577 2.69680077 8.76171875 6.4296875 C12.39044404 11.03141484 16.94619564 14.71485071 21.42578125 18.44921875 C22.20501953 19.21685547 22.20501953 19.21685547 23 20 C23 20.66 23 21.32 23 22 C23.54140625 22.2578125 24.0828125 22.515625 24.640625 22.78125 C27.43492441 24.22466294 30.08219346 25.83438534 32.75 27.5 C33.73484375 28.1084375 34.7196875 28.716875 35.734375 29.34375 C36.85585937 30.16359375 36.85585937 30.16359375 38 31 C38 31.66 38 32.32 38 33 C38.804375 33.226875 39.60875 33.45375 40.4375 33.6875 C44.94587411 35.34847993 48.83643508 37.60279596 53 40 C53 44.29 53 48.58 53 53 C35.51 53 18.02 53 0 53 C0 35.51 0 18.02 0 0 Z " fill="#74CE69" transform="translate(1105,658)"/>
<path d="M0 0 C0.66 0 1.32 0 2 0 C1.67 0.66 1.34 1.32 1 2 C0.67 1.34 0.34 0.68 0 0 Z " fill="#74CE69" transform="translate(822,657)"/>
<path d="M0 0 C0.99 0.495 0.99 0.495 2 1 C1.01 1.495 1.01 1.495 0 2 C0 1.34 0 0.68 0 0 Z " fill="#74CE69" transform="translate(1105,654)"/>
</svg>
